<?xml version="1.0" encoding="UTF-8" standalone="no"?>
<!DOCTYPE svg PUBLIC "-//W3C//DTD SVG 1.1//EN"
 "http://www.w3.org/Graphics/SVG/1.1/DTD/svg11.dtd">
<!-- Generated by graphviz version 2.40.1 (20161225.0304)
 -->
<!-- Title: JNCH Portfolio Dependencies Pages: 1 -->
<svg width="800px" height="600px" viewBox="0 0 800 600" xmlns="http://www.w3.org/2000/svg" xmlns:xlink="http://www.w3.org/1999/xlink">
<g id="graph0" class="graph" transform="scale(1 1) rotate(0) translate(4 596)">
<title>JNCH Portfolio Dependencies</title>
<polygon fill="#ffffff" stroke="transparent" points="-4,4 -4,-596 796,-596 796,4 -4,4"/>
<!-- app/page.tsx -->
<g id="node1" class="node">
<title>app/page.tsx</title>
<ellipse fill="none" stroke="#000000" cx="396" cy="-574" rx="60.3893" ry="18"/>
<text text-anchor="middle" x="396" y="-570.3" font-family="Arial" font-size="14.00" fill="#000000">app/page.tsx</text>
</g>
<!-- components/hero.tsx -->
<g id="node2" class="node">
<title>components/hero.tsx</title>
<ellipse fill="none" stroke="#000000" cx="198" cy="-502" rx="85.2851" ry="18"/>
<text text-anchor="middle" x="198" y="-498.3" font-family="Arial" font-size="14.00" fill="#000000">components/hero.tsx</text>
</g>
<!-- app/page.tsx&#45;&gt;components/hero.tsx -->
<g id="edge1" class="edge">
<title>app/page.tsx&#45;&gt;components/hero.tsx</title>
<path fill="none" stroke="#000000" d="M354.3453,-560.7307C322.1563,-550.5632 277.5472,-536.5209 243.0472,-525.6498"/>
<polygon fill="#000000" stroke="#000000" points="243.9548,-522.2654 233.3604,-522.5384 241.7792,-528.9144 243.9548,-522.2654"/>
</g>
<!-- components/works.tsx -->
<g id="node3" class="node">
<title>components/works.tsx</title>
<ellipse fill="none" stroke="#000000" cx="396" cy="-502" rx="94.7833" ry="18"/>
<text text-anchor="middle" x="396" y="-498.3" font-family="Arial" font-size="14.00" fill="#000000">components/works.tsx</text>
</g>
<!-- app/page.tsx&#45;&gt;components/works.tsx -->
<g id="edge2" class="edge">
<title>app/page.tsx&#45;&gt;components/works.tsx</title>
<path fill="none" stroke="#000000" d="M396,-555.8314C396,-548.131 396,-538.9743 396,-530.4166"/>
<polygon fill="#000000" stroke="#000000" points="399.5001,-530.4132 396,-520.4133 392.5001,-530.4133 399.5001,-530.4132"/>
</g>
<!-- components/portfolio-nav.tsx -->
<g id="node4" class="node">
<title>components/portfolio-nav.tsx</title>
<ellipse fill="none" stroke="#000000" cx="622" cy="-502" rx="113.18" ry="18"/>
<text text-anchor="middle" x="622" y="-498.3" font-family="Arial" font-size="14.00" fill="#000000">components/portfolio-nav.tsx</text>
</g>
<!-- app/page.tsx&#45;&gt;components/portfolio-nav.tsx -->
<g id="edge3" class="edge">
<title>app/page.tsx&#45;&gt;components/portfolio-nav.tsx</title>
<path fill="none" stroke="#000000" d="M439.9376,-561.3008C474.4481,-551.3757 523.5599,-537.4489 562.0764,-526.4157"/>
<polygon fill="#000000" stroke="#000000" points="563.2,-529.7153 571.8,-523.5498 561.2201,-523.0195 563.2,-529.7153"/>
</g>
<!-- components/happy-clients.tsx -->
<g id="node5" class="node">
<title>components/happy-clients.tsx</title>
<ellipse fill="none" stroke="#000000" cx="198" cy="-430" rx="119.679" ry="18"/>
<text text-anchor="middle" x="198" y="-426.3" font-family="Arial" font-size="14.00" fill="#000000">components/happy-clients.tsx</text>
</g>
<!-- app/page.tsx&#45;&gt;components/happy-clients.tsx -->
<g id="edge4" class="edge">
<title>app/page.tsx&#45;&gt;components/happy-clients.tsx</title>
<path fill="none" stroke="#000000" d="M345.9376,-563.3008C307.4481,-553.3757 252.5599,-537.4489 210.0764,-512.4157C191.2,-500.5498 175.2,-480.7153 165.2201,-463.0195"/>
<polygon fill="#000000" stroke="#000000" points="168.2,-461.2201 160.2,-454.0498 162.0764,-464.5157 168.2,-461.2201"/>
</g>
<!-- components/contact.tsx -->
<g id="node6" class="node">
<title>components/contact.tsx</title>
<ellipse fill="none" stroke="#000000" cx="396" cy="-430" rx="97.4827" ry="18"/>
<text text-anchor="middle" x="396" y="-426.3" font-family="Arial" font-size="14.00" fill="#000000">components/contact.tsx</text>
</g>
<!-- app/page.tsx&#45;&gt;components/contact.tsx -->
<g id="edge5" class="edge">
<title>app/page.tsx&#45;&gt;components/contact.tsx</title>
<path fill="none" stroke="#000000" d="M396,-555.7623C396,-530.201 396,-481.2474 396,-448.3541"/>
<polygon fill="#000000" stroke="#000000" points="399.5001,-448.0896 396,-438.0896 392.5001,-448.0897 399.5001,-448.0896"/>
</g>
<!-- app/content-creators/page.tsx -->
<g id="node7" class="node">
<title>app/content-creators/page.tsx</title>
<ellipse fill="none" stroke="#000000" cx="622" cy="-430" rx="110.48" ry="18"/>
<text text-anchor="middle" x="622" y="-426.3" font-family="Arial" font-size="14.00" fill="#000000">app/content-creators/page.tsx</text>
</g>
<!-- components/content-creators-page.tsx -->
<g id="node8" class="node">
<title>components/content-creators-page.tsx</title>
<ellipse fill="none" stroke="#000000" cx="622" cy="-358" rx="149.6736" ry="18"/>
<text text-anchor="middle" x="622" y="-354.3" font-family="Arial" font-size="14.00" fill="#000000">components/content-creators-page.tsx</text>
</g>
<!-- app/content-creators/page.tsx&#45;&gt;components/content-creators-page.tsx -->
<g id="edge6" class="edge">
<title>app/content-creators/page.tsx&#45;&gt;components/content-creators-page.tsx</title>
<path fill="none" stroke="#000000" d="M622,-411.8314C622,-404.131 622,-394.9743 622,-386.4166"/>
<polygon fill="#000000" stroke="#000000" points="625.5001,-386.4132 622,-376.4133 618.5001,-386.4133 625.5001,-386.4132"/>
</g>
<!-- components/gallery-modal.tsx -->
<g id="node9" class="node">
<title>components/gallery-modal.tsx</title>
<ellipse fill="none" stroke="#000000" cx="622" cy="-286" rx="119.679" ry="18"/>
<text text-anchor="middle" x="622" y="-282.3" font-family="Arial" font-size="14.00" fill="#000000">components/gallery-modal.tsx</text>
</g>
<!-- components/content-creators-page.tsx&#45;&gt;components/gallery-modal.tsx -->
<g id="edge7" class="edge">
<title>components/content-creators-page.tsx&#45;&gt;components/gallery-modal.tsx</title>
<path fill="none" stroke="#000000" d="M622,-339.8314C622,-332.131 622,-322.9743 622,-314.4166"/>
<polygon fill="#000000" stroke="#000000" points="625.5001,-314.4132 622,-304.4133 618.5001,-314.4133 625.5001,-314.4132"/>
</g>
<!-- app/ecommerce_photography/page.tsx -->
<g id="node10" class="node">
<title>app/ecommerce_photography/page.tsx</title>
<ellipse fill="none" stroke="#000000" cx="198" cy="-358" rx="149.6736" ry="18"/>
<text text-anchor="middle" x="198" y="-354.3" font-family="Arial" font-size="14.00" fill="#000000">app/ecommerce_photography/page.tsx</text>
</g>
<!-- components/ecommerce-photography-story.tsx -->
<g id="node11" class="node">
<title>components/ecommerce-photography-story.tsx</title>
<ellipse fill="none" stroke="#000000" cx="198" cy="-286" rx="179.3693" ry="18"/>
<text text-anchor="middle" x="198" y="-282.3" font-family="Arial" font-size="14.00" fill="#000000">components/ecommerce-photography-story.tsx</text>
</g>
<!-- app/ecommerce_photography/page.tsx&#45;&gt;components/ecommerce-photography-story.tsx -->
<g id="edge8" class="edge">
<title>app/ecommerce_photography/page.tsx&#45;&gt;components/ecommerce-photography-story.tsx</title>
<path fill="none" stroke="#000000" d="M198,-339.8314C198,-332.131 198,-322.9743 198,-314.4166"/>
<polygon fill="#000000" stroke="#000000" points="201.5001,-314.4132 198,-304.4133 194.5001,-314.4133 201.5001,-314.4132"/>
</g>
<!-- components/ecommerce-photography-story.tsx&#45;&gt;components/gallery-modal.tsx -->
<g id="edge9" class="edge">
<title>components/ecommerce-photography-story.tsx&#45;&gt;components/gallery-modal.tsx</title>
<path fill="none" stroke="#000000" d="M341.0764,-276.4157C391.5599,-275.4489 446.4481,-275.3757 492.9376,-275.3008"/>
<polygon fill="#000000" stroke="#000000" points="493.2,-278.8 503.2,-275.2753 493.2,-271.8 493.2,-278.8"/>
</g>
<!-- app/lifestyle_photography/page.tsx -->
<g id="node12" class="node">
<title>app/lifestyle_photography/page.tsx</title>
<ellipse fill="none" stroke="#000000" cx="198" cy="-214" rx="142.3745" ry="18"/>
<text text-anchor="middle" x="198" y="-210.3" font-family="Arial" font-size="14.00" fill="#000000">app/lifestyle_photography/page.tsx</text>
</g>
<!-- components/lifestyle-photography-story.tsx -->
<g id="node13" class="node">
<title>components/lifestyle-photography-story.tsx</title>
<ellipse fill="none" stroke="#000000" cx="198" cy="-142" rx="172.5706" ry="18"/>
<text text-anchor="middle" x="198" y="-138.3" font-family="Arial" font-size="14.00" fill="#000000">components/lifestyle-photography-story.tsx</text>
</g>
<!-- app/lifestyle_photography/page.tsx&#45;&gt;components/lifestyle-photography-story.tsx -->
<g id="edge10" class="edge">
<title>app/lifestyle_photography/page.tsx&#45;&gt;components/lifestyle-photography-story.tsx</title>
<path fill="none" stroke="#000000" d="M198,-195.8314C198,-188.131 198,-178.9743 198,-170.4166"/>
<polygon fill="#000000" stroke="#000000" points="201.5001,-170.4132 198,-160.4133 194.5001,-170.4133 201.5001,-170.4132"/>
</g>
<!-- components/lifestyle-photography-story.tsx&#45;&gt;components/gallery-modal.tsx -->
<g id="edge11" class="edge">
<title>components/lifestyle-photography-story.tsx&#45;&gt;components/gallery-modal.tsx</title>
<path fill="none" stroke="#000000" d="M246.0764,-159.5843C296.5599,-178.5511 371.4481,-208.6243 437,-232 462.2,-241.2847 490.0764,-251.5843 514.5599,-260.5511"/>
<polygon fill="#000000" stroke="#000000" points="513.5599,-263.9144 524.1396,-264.0616 516.0472,-257.3654 513.5599,-263.9144"/>
</g>
<!-- app/events/page.tsx -->
<g id="node14" class="node">
<title>app/events/page.tsx</title>
<ellipse fill="none" stroke="#000000" cx="622" cy="-214" rx="83.3857" ry="18"/>
<text text-anchor="middle" x="622" y="-210.3" font-family="Arial" font-size="14.00" fill="#000000">app/events/page.tsx</text>
</g>
<!-- components/event-coverage.tsx -->
<g id="node15" class="node">
<title>components/event-coverage.tsx</title>
<ellipse fill="none" stroke="#000000" cx="622" cy="-142" rx="124.2781" ry="18"/>
<text text-anchor="middle" x="622" y="-138.3" font-family="Arial" font-size="14.00" fill="#000000">components/event-coverage.tsx</text>
</g>
<!-- app/events/page.tsx&#45;&gt;components/event-coverage.tsx -->
<g id="edge12" class="edge">
<title>app/events/page.tsx&#45;&gt;components/event-coverage.tsx</title>
<path fill="none" stroke="#000000" d="M622,-195.8314C622,-188.131 622,-178.9743 622,-170.4166"/>
<polygon fill="#000000" stroke="#000000" points="625.5001,-170.4132 622,-160.4133 618.5001,-170.4133 625.5001,-170.4132"/>
</g>
<!-- components/event-coverage.tsx&#45;&gt;components/gallery-modal.tsx -->
<g id="edge13" class="edge">
<title>components/event-coverage.tsx&#45;&gt;components/gallery-modal.tsx</title>
<path fill="none" stroke="#000000" d="M622,-160.1686C622,-184.7377 622,-228.0853 622,-257.9515"/>
<polygon fill="#000000" stroke="#000000" points="618.5001,-258.0133 622,-268.0133 625.5001,-258.0134 618.5001,-258.0133"/>
</g>
<!-- app/layout.tsx -->
<g id="node16" class="node">
<title>app/layout.tsx</title>
<ellipse fill="none" stroke="#000000" cx="622" cy="-70" rx="63.8893" ry="18"/>
<text text-anchor="middle" x="622" y="-66.3" font-family="Arial" font-size="14.00" fill="#000000">app/layout.tsx</text>
</g>
<!-- components/navbar.tsx -->
<g id="node17" class="node">
<title>components/navbar.tsx</title>
<ellipse fill="none" stroke="#000000" cx="622" cy="-18" rx="94.7833" ry="18"/>
<text text-anchor="middle" x="622" y="-14.3" font-family="Arial" font-size="14.00" fill="#000000">components/navbar.tsx</text>
</g>
<!-- app/layout.tsx&#45;&gt;components/navbar.tsx -->
<g id="edge14" class="edge">
<title>app/layout.tsx&#45;&gt;components/navbar.tsx</title>
<path fill="none" stroke="#000000" d="M622,-51.8314C622,-44.131 622,-34.9743 622,-46.4166"/>
<polygon fill="#000000" stroke="#000000" points="625.5001,-46.4132 622,-36.4133 618.5001,-46.4133 625.5001,-46.4132"/>
</g>
</g>
</svg>

