<?xml version="1.0" encoding="UTF-8" standalone="no"?>
<!DOCTYPE svg PUBLIC "-//W3C//DTD SVG 1.1//EN"
 "http://www.w3.org/Graphics/SVG/1.1/DTD/svg11.dtd">
<!-- Generated by graphviz version 12.2.1 (20241206.2353)
 -->
<!-- Title: G Pages: 1 -->
<svg width="1160pt" height="4015pt"
 viewBox="0.00 0.00 1159.95 4014.95" xmlns="http://www.w3.org/2000/svg" xmlns:xlink="http://www.w3.org/1999/xlink">
<g id="graph0" class="graph" transform="scale(1 1) rotate(0) translate(21.6 3993.35)">
<title>G</title>
<polygon fill="#111111" stroke="none" points="-21.6,21.6 -21.6,-3993.35 1138.35,-3993.35 1138.35,21.6 -21.6,21.6"/>
<!-- app/api/dictionary/route.ts -->
<g id="node1" class="node">
<title>app/api/dictionary/route.ts</title>
<path fill="none" stroke="#cfffac" d="M291.96,-23.75C291.96,-23.75 137.29,-23.75 137.29,-23.75 133.33,-23.75 129.38,-19.79 129.38,-15.83 129.38,-15.83 129.38,-7.92 129.38,-7.92 129.38,-3.96 133.33,0 137.29,0 137.29,0 291.96,0 291.96,0 295.92,0 299.88,-3.96 299.88,-7.92 299.88,-7.92 299.88,-15.83 299.88,-15.83 299.88,-19.79 295.92,-23.75 291.96,-23.75"/>
<text text-anchor="middle" x="214.62" y="-6.45" font-family="Arial" font-size="14.00" fill="#cfffac">app/api/dictionary/route.ts</text>
</g>
<!-- app/api/send/route.ts -->
<g id="node2" class="node">
<title>app/api/send/route.ts</title>
<path fill="none" stroke="#cfffac" d="M277.71,-65.75C277.71,-65.75 151.54,-65.75 151.54,-65.75 147.58,-65.75 143.62,-61.79 143.62,-57.83 143.62,-57.83 143.62,-49.92 143.62,-49.92 143.62,-45.96 147.58,-42 151.54,-42 151.54,-42 277.71,-42 277.71,-42 281.67,-42 285.62,-45.96 285.62,-49.92 285.62,-49.92 285.62,-57.83 285.62,-57.83 285.62,-61.79 281.67,-65.75 277.71,-65.75"/>
<text text-anchor="middle" x="214.62" y="-48.45" font-family="Arial" font-size="14.00" fill="#cfffac">app/api/send/route.ts</text>
</g>
<!-- app/content&#45;creators/page.tsx -->
<g id="node3" class="node">
<title>app/content&#45;creators/page.tsx</title>
<path fill="none" stroke="#cfffac" d="M303.96,-107.75C303.96,-107.75 125.29,-107.75 125.29,-107.75 121.33,-107.75 117.38,-103.79 117.38,-99.83 117.38,-99.83 117.38,-91.92 117.38,-91.92 117.38,-87.96 121.33,-84 125.29,-84 125.29,-84 303.96,-84 303.96,-84 307.92,-84 311.88,-87.96 311.88,-91.92 311.88,-91.92 311.88,-99.83 311.88,-99.83 311.88,-103.79 307.92,-107.75 303.96,-107.75"/>
<text text-anchor="middle" x="214.62" y="-90.45" font-family="Arial" font-size="14.00" fill="#cfffac">app/content&#45;creators/page.tsx</text>
</g>
<!-- app/ecommerce_photography/page.tsx -->
<g id="node4" class="node">
<title>app/ecommerce_photography/page.tsx</title>
<path fill="none" stroke="#cfffac" d="M332.46,-149.75C332.46,-149.75 96.79,-149.75 96.79,-149.75 92.83,-149.75 88.88,-145.79 88.88,-141.83 88.88,-141.83 88.88,-133.92 88.88,-133.92 88.88,-129.96 92.83,-126 96.79,-126 96.79,-126 332.46,-126 332.46,-126 336.42,-126 340.38,-129.96 340.38,-133.92 340.38,-133.92 340.38,-141.83 340.38,-141.83 340.38,-145.79 336.42,-149.75 332.46,-149.75"/>
<text text-anchor="middle" x="214.62" y="-132.45" font-family="Arial" font-size="14.00" fill="#cfffac">app/ecommerce_photography/page.tsx</text>
</g>
<!-- app/events/page.tsx -->
<g id="node5" class="node">
<title>app/events/page.tsx</title>
<path fill="none" stroke="#cfffac" d="M275.08,-191.75C275.08,-191.75 154.17,-191.75 154.17,-191.75 150.21,-191.75 146.25,-187.79 146.25,-183.83 146.25,-183.83 146.25,-175.92 146.25,-175.92 146.25,-171.96 150.21,-168 154.17,-168 154.17,-168 275.08,-168 275.08,-168 279.04,-168 283,-171.96 283,-175.92 283,-175.92 283,-183.83 283,-183.83 283,-187.79 279.04,-191.75 275.08,-191.75"/>
<text text-anchor="middle" x="214.62" y="-174.45" font-family="Arial" font-size="14.00" fill="#cfffac">app/events/page.tsx</text>
</g>
<!-- app/globals.css -->
<g id="node6" class="node">
<title>app/globals.css</title>
<path fill="none" stroke="#cfffac" d="M661.21,-233.75C661.21,-233.75 568.04,-233.75 568.04,-233.75 564.08,-233.75 560.12,-229.79 560.12,-225.83 560.12,-225.83 560.12,-217.92 560.12,-217.92 560.12,-213.96 564.08,-210 568.04,-210 568.04,-210 661.21,-210 661.21,-210 665.17,-210 669.12,-213.96 669.12,-217.92 669.12,-217.92 669.12,-225.83 669.12,-225.83 669.12,-229.79 665.17,-233.75 661.21,-233.75"/>
<text text-anchor="middle" x="614.62" y="-216.45" font-family="Arial" font-size="14.00" fill="#cfffac">app/globals.css</text>
</g>
<!-- app/layout.tsx -->
<g id="node7" class="node">
<title>app/layout.tsx</title>
<path fill="none" stroke="#c6c5fe" d="M256.33,-233.75C256.33,-233.75 172.92,-233.75 172.92,-233.75 168.96,-233.75 165,-229.79 165,-225.83 165,-225.83 165,-217.92 165,-217.92 165,-213.96 168.96,-210 172.92,-210 172.92,-210 256.33,-210 256.33,-210 260.29,-210 264.25,-213.96 264.25,-217.92 264.25,-217.92 264.25,-225.83 264.25,-225.83 264.25,-229.79 260.29,-233.75 256.33,-233.75"/>
<text text-anchor="middle" x="214.62" y="-216.45" font-family="Arial" font-size="14.00" fill="#c6c5fe">app/layout.tsx</text>
</g>
<!-- app/layout.tsx&#45;&gt;app/globals.css -->
<g id="edge1" class="edge">
<title>app/layout.tsx&#45;&gt;app/globals.css</title>
<path fill="none" stroke="#757575" d="M264.43,-221.88C335.75,-221.88 468.61,-221.88 548.29,-221.88"/>
<polygon fill="#757575" stroke="#757575" points="548.14,-225.38 558.14,-221.88 548.14,-218.38 548.14,-225.38"/>
</g>
<!-- app/lifestyle_photography/page.tsx -->
<g id="node8" class="node">
<title>app/lifestyle_photography/page.tsx</title>
<path fill="none" stroke="#cfffac" d="M318.96,-275.75C318.96,-275.75 110.29,-275.75 110.29,-275.75 106.33,-275.75 102.38,-271.79 102.38,-267.83 102.38,-267.83 102.38,-259.92 102.38,-259.92 102.38,-255.96 106.33,-252 110.29,-252 110.29,-252 318.96,-252 318.96,-252 322.92,-252 326.88,-255.96 326.88,-259.92 326.88,-259.92 326.88,-267.83 326.88,-267.83 326.88,-271.79 322.92,-275.75 318.96,-275.75"/>
<text text-anchor="middle" x="214.62" y="-258.45" font-family="Arial" font-size="14.00" fill="#cfffac">app/lifestyle_photography/page.tsx</text>
</g>
<!-- app/page.tsx -->
<g id="node9" class="node">
<title>app/page.tsx</title>
<path fill="none" stroke="#cfffac" d="M253.33,-317.75C253.33,-317.75 175.92,-317.75 175.92,-317.75 171.96,-317.75 168,-313.79 168,-309.83 168,-309.83 168,-301.92 168,-301.92 168,-297.96 171.96,-294 175.92,-294 175.92,-294 253.33,-294 253.33,-294 257.29,-294 261.25,-297.96 261.25,-301.92 261.25,-301.92 261.25,-309.83 261.25,-309.83 261.25,-313.79 257.29,-317.75 253.33,-317.75"/>
<text text-anchor="middle" x="214.62" y="-300.45" font-family="Arial" font-size="14.00" fill="#cfffac">app/page.tsx</text>
</g>
<!-- components/content&#45;creators.tsx -->
<g id="node10" class="node">
<title>components/content&#45;creators.tsx</title>
<path fill="none" stroke="#cfffac" d="M312.96,-359.75C312.96,-359.75 116.29,-359.75 116.29,-359.75 112.33,-359.75 108.38,-355.79 108.38,-351.83 108.38,-351.83 108.38,-343.92 108.38,-343.92 108.38,-339.96 112.33,-336 116.29,-336 116.29,-336 312.96,-336 312.96,-336 316.92,-336 320.88,-339.96 320.88,-343.92 320.88,-343.92 320.88,-351.83 320.88,-351.83 320.88,-355.79 316.92,-359.75 312.96,-359.75"/>
<text text-anchor="middle" x="214.62" y="-342.45" font-family="Arial" font-size="14.00" fill="#cfffac">components/content&#45;creators.tsx</text>
</g>
<!-- components/ecommerce&#45;photography.tsx -->
<g id="node11" class="node">
<title>components/ecommerce&#45;photography.tsx</title>
<path fill="none" stroke="#cfffac" d="M339.58,-401.75C339.58,-401.75 89.67,-401.75 89.67,-401.75 85.71,-401.75 81.75,-397.79 81.75,-393.83 81.75,-393.83 81.75,-385.92 81.75,-385.92 81.75,-381.96 85.71,-378 89.67,-378 89.67,-378 339.58,-378 339.58,-378 343.54,-378 347.5,-381.96 347.5,-385.92 347.5,-385.92 347.5,-393.83 347.5,-393.83 347.5,-397.79 343.54,-401.75 339.58,-401.75"/>
<text text-anchor="middle" x="214.62" y="-384.45" font-family="Arial" font-size="14.00" fill="#cfffac">components/ecommerce&#45;photography.tsx</text>
</g>
<!-- components/happy&#45;clients&#45;slider.tsx -->
<g id="node12" class="node">
<title>components/happy&#45;clients&#45;slider.tsx</title>
<path fill="none" stroke="#cfffac" d="M321.96,-443.75C321.96,-443.75 107.29,-443.75 107.29,-443.75 103.33,-443.75 99.38,-439.79 99.38,-435.83 99.38,-435.83 99.38,-427.92 99.38,-427.92 99.38,-423.96 103.33,-420 107.29,-420 107.29,-420 321.96,-420 321.96,-420 325.92,-420 329.88,-423.96 329.88,-427.92 329.88,-427.92 329.88,-435.83 329.88,-435.83 329.88,-439.79 325.92,-443.75 321.96,-443.75"/>
<text text-anchor="middle" x="214.62" y="-426.45" font-family="Arial" font-size="14.00" fill="#cfffac">components/happy&#45;clients&#45;slider.tsx</text>
</g>
<!-- components/lifestyle&#45;photography.tsx -->
<g id="node13" class="node">
<title>components/lifestyle&#45;photography.tsx</title>
<path fill="none" stroke="#cfffac" d="M326.08,-485.75C326.08,-485.75 103.17,-485.75 103.17,-485.75 99.21,-485.75 95.25,-481.79 95.25,-477.83 95.25,-477.83 95.25,-469.92 95.25,-469.92 95.25,-465.96 99.21,-462 103.17,-462 103.17,-462 326.08,-462 326.08,-462 330.04,-462 334,-465.96 334,-469.92 334,-469.92 334,-477.83 334,-477.83 334,-481.79 330.04,-485.75 326.08,-485.75"/>
<text text-anchor="middle" x="214.62" y="-468.45" font-family="Arial" font-size="14.00" fill="#cfffac">components/lifestyle&#45;photography.tsx</text>
</g>
<!-- components/recaptcha&#45;provider.tsx -->
<g id="node14" class="node">
<title>components/recaptcha&#45;provider.tsx</title>
<path fill="none" stroke="#cfffac" d="M320.08,-527.75C320.08,-527.75 109.17,-527.75 109.17,-527.75 105.21,-527.75 101.25,-523.79 101.25,-519.83 101.25,-519.83 101.25,-511.92 101.25,-511.92 101.25,-507.96 105.21,-504 109.17,-504 109.17,-504 320.08,-504 320.08,-504 324.04,-504 328,-507.96 328,-511.92 328,-511.92 328,-519.83 328,-519.83 328,-523.79 324.04,-527.75 320.08,-527.75"/>
<text text-anchor="middle" x="214.62" y="-510.45" font-family="Arial" font-size="14.00" fill="#cfffac">components/recaptcha&#45;provider.tsx</text>
</g>
<!-- components/spotlight&#45;tabs.tsx -->
<g id="node15" class="node">
<title>components/spotlight&#45;tabs.tsx</title>
<path fill="none" stroke="#cfffac" d="M304.33,-569.75C304.33,-569.75 124.92,-569.75 124.92,-569.75 120.96,-569.75 117,-565.79 117,-561.83 117,-561.83 117,-553.92 117,-553.92 117,-549.96 120.96,-546 124.92,-546 124.92,-546 304.33,-546 304.33,-546 308.29,-546 312.25,-549.96 312.25,-553.92 312.25,-553.92 312.25,-561.83 312.25,-561.83 312.25,-565.79 308.29,-569.75 304.33,-569.75"/>
<text text-anchor="middle" x="214.62" y="-552.45" font-family="Arial" font-size="14.00" fill="#cfffac">components/spotlight&#45;tabs.tsx</text>
</g>
<!-- components/theme&#45;provider.tsx -->
<g id="node16" class="node">
<title>components/theme&#45;provider.tsx</title>
<path fill="none" stroke="#cfffac" d="M309.58,-611.75C309.58,-611.75 119.67,-611.75 119.67,-611.75 115.71,-611.75 111.75,-607.79 111.75,-603.83 111.75,-603.83 111.75,-595.92 111.75,-595.92 111.75,-591.96 115.71,-588 119.67,-588 119.67,-588 309.58,-588 309.58,-588 313.54,-588 317.5,-591.96 317.5,-595.92 317.5,-595.92 317.5,-603.83 317.5,-603.83 317.5,-607.79 313.54,-611.75 309.58,-611.75"/>
<text text-anchor="middle" x="214.62" y="-594.45" font-family="Arial" font-size="14.00" fill="#cfffac">components/theme&#45;provider.tsx</text>
</g>
<!-- components/ui/accordion.tsx -->
<g id="node17" class="node">
<title>components/ui/accordion.tsx</title>
<path fill="none" stroke="#cfffac" d="M300.58,-653.75C300.58,-653.75 128.67,-653.75 128.67,-653.75 124.71,-653.75 120.75,-649.79 120.75,-645.83 120.75,-645.83 120.75,-637.92 120.75,-637.92 120.75,-633.96 124.71,-630 128.67,-630 128.67,-630 300.58,-630 300.58,-630 304.54,-630 308.5,-633.96 308.5,-637.92 308.5,-637.92 308.5,-645.83 308.5,-645.83 308.5,-649.79 304.54,-653.75 300.58,-653.75"/>
<text text-anchor="middle" x="214.62" y="-636.45" font-family="Arial" font-size="14.00" fill="#cfffac">components/ui/accordion.tsx</text>
</g>
<!-- components/ui/alert&#45;dialog.tsx -->
<g id="node18" class="node">
<title>components/ui/alert&#45;dialog.tsx</title>
<path fill="none" stroke="#cfffac" d="M304.71,-695.75C304.71,-695.75 124.54,-695.75 124.54,-695.75 120.58,-695.75 116.62,-691.79 116.62,-687.83 116.62,-687.83 116.62,-679.92 116.62,-679.92 116.62,-675.96 120.58,-672 124.54,-672 124.54,-672 304.71,-672 304.71,-672 308.67,-672 312.62,-675.96 312.62,-679.92 312.62,-679.92 312.62,-687.83 312.62,-687.83 312.62,-691.79 308.67,-695.75 304.71,-695.75"/>
<text text-anchor="middle" x="214.62" y="-678.45" font-family="Arial" font-size="14.00" fill="#cfffac">components/ui/alert&#45;dialog.tsx</text>
</g>
<!-- components/ui/alert.tsx -->
<g id="node19" class="node">
<title>components/ui/alert.tsx</title>
<path fill="none" stroke="#cfffac" d="M284.46,-737.75C284.46,-737.75 144.79,-737.75 144.79,-737.75 140.83,-737.75 136.88,-733.79 136.88,-729.83 136.88,-729.83 136.88,-721.92 136.88,-721.92 136.88,-717.96 140.83,-714 144.79,-714 144.79,-714 284.46,-714 284.46,-714 288.42,-714 292.38,-717.96 292.38,-721.92 292.38,-721.92 292.38,-729.83 292.38,-729.83 292.38,-733.79 288.42,-737.75 284.46,-737.75"/>
<text text-anchor="middle" x="214.62" y="-720.45" font-family="Arial" font-size="14.00" fill="#cfffac">components/ui/alert.tsx</text>
</g>
<!-- components/ui/aspect&#45;ratio.tsx -->
<g id="node20" class="node">
<title>components/ui/aspect&#45;ratio.tsx</title>
<path fill="none" stroke="#cfffac" d="M306.58,-779.75C306.58,-779.75 122.67,-779.75 122.67,-779.75 118.71,-779.75 114.75,-775.79 114.75,-771.83 114.75,-771.83 114.75,-763.92 114.75,-763.92 114.75,-759.96 118.71,-756 122.67,-756 122.67,-756 306.58,-756 306.58,-756 310.54,-756 314.5,-759.96 314.5,-763.92 314.5,-763.92 314.5,-771.83 314.5,-771.83 314.5,-775.79 310.54,-779.75 306.58,-779.75"/>
<text text-anchor="middle" x="214.62" y="-762.45" font-family="Arial" font-size="14.00" fill="#cfffac">components/ui/aspect&#45;ratio.tsx</text>
</g>
<!-- components/ui/avatar.tsx -->
<g id="node21" class="node">
<title>components/ui/avatar.tsx</title>
<path fill="none" stroke="#cfffac" d="M289.71,-821.75C289.71,-821.75 139.54,-821.75 139.54,-821.75 135.58,-821.75 131.62,-817.79 131.62,-813.83 131.62,-813.83 131.62,-805.92 131.62,-805.92 131.62,-801.96 135.58,-798 139.54,-798 139.54,-798 289.71,-798 289.71,-798 293.67,-798 297.62,-801.96 297.62,-805.92 297.62,-805.92 297.62,-813.83 297.62,-813.83 297.62,-817.79 293.67,-821.75 289.71,-821.75"/>
<text text-anchor="middle" x="214.62" y="-804.45" font-family="Arial" font-size="14.00" fill="#cfffac">components/ui/avatar.tsx</text>
</g>
<!-- components/ui/badge.tsx -->
<g id="node22" class="node">
<title>components/ui/badge.tsx</title>
<path fill="none" stroke="#cfffac" d="M290.08,-863.75C290.08,-863.75 139.17,-863.75 139.17,-863.75 135.21,-863.75 131.25,-859.79 131.25,-855.83 131.25,-855.83 131.25,-847.92 131.25,-847.92 131.25,-843.96 135.21,-840 139.17,-840 139.17,-840 290.08,-840 290.08,-840 294.04,-840 298,-843.96 298,-847.92 298,-847.92 298,-855.83 298,-855.83 298,-859.79 294.04,-863.75 290.08,-863.75"/>
<text text-anchor="middle" x="214.62" y="-846.45" font-family="Arial" font-size="14.00" fill="#cfffac">components/ui/badge.tsx</text>
</g>
<!-- components/ui/breadcrumb.tsx -->
<g id="node23" class="node">
<title>components/ui/breadcrumb.tsx</title>
<path fill="none" stroke="#cfffac" d="M307.71,-905.75C307.71,-905.75 121.54,-905.75 121.54,-905.75 117.58,-905.75 113.62,-901.79 113.62,-897.83 113.62,-897.83 113.62,-889.92 113.62,-889.92 113.62,-885.96 117.58,-882 121.54,-882 121.54,-882 307.71,-882 307.71,-882 311.67,-882 315.62,-885.96 315.62,-889.92 315.62,-889.92 315.62,-897.83 315.62,-897.83 315.62,-901.79 311.67,-905.75 307.71,-905.75"/>
<text text-anchor="middle" x="214.62" y="-888.45" font-family="Arial" font-size="14.00" fill="#cfffac">components/ui/breadcrumb.tsx</text>
</g>
<!-- components/ui/button.tsx -->
<g id="node24" class="node">
<title>components/ui/button.tsx</title>
<path fill="none" stroke="#cfffac" d="M290.08,-947.75C290.08,-947.75 139.17,-947.75 139.17,-947.75 135.21,-947.75 131.25,-943.79 131.25,-939.83 131.25,-939.83 131.25,-931.92 131.25,-931.92 131.25,-927.96 135.21,-924 139.17,-924 139.17,-924 290.08,-924 290.08,-924 294.04,-924 298,-927.96 298,-931.92 298,-931.92 298,-939.83 298,-939.83 298,-943.79 294.04,-947.75 290.08,-947.75"/>
<text text-anchor="middle" x="214.62" y="-930.45" font-family="Arial" font-size="14.00" fill="#cfffac">components/ui/button.tsx</text>
</g>
<!-- components/ui/calendar.tsx -->
<g id="node25" class="node">
<title>components/ui/calendar.tsx</title>
<path fill="none" stroke="#cfffac" d="M296.83,-989.75C296.83,-989.75 132.42,-989.75 132.42,-989.75 128.46,-989.75 124.5,-985.79 124.5,-981.83 124.5,-981.83 124.5,-973.92 124.5,-973.92 124.5,-969.96 128.46,-966 132.42,-966 132.42,-966 296.83,-966 296.83,-966 300.79,-966 304.75,-969.96 304.75,-973.92 304.75,-973.92 304.75,-981.83 304.75,-981.83 304.75,-985.79 300.79,-989.75 296.83,-989.75"/>
<text text-anchor="middle" x="214.62" y="-972.45" font-family="Arial" font-size="14.00" fill="#cfffac">components/ui/calendar.tsx</text>
</g>
<!-- components/ui/card.tsx -->
<g id="node26" class="node">
<title>components/ui/card.tsx</title>
<path fill="none" stroke="#cfffac" d="M284.46,-1031.75C284.46,-1031.75 144.79,-1031.75 144.79,-1031.75 140.83,-1031.75 136.88,-1027.79 136.88,-1023.83 136.88,-1023.83 136.88,-1015.92 136.88,-1015.92 136.88,-1011.96 140.83,-1008 144.79,-1008 144.79,-1008 284.46,-1008 284.46,-1008 288.42,-1008 292.38,-1011.96 292.38,-1015.92 292.38,-1015.92 292.38,-1023.83 292.38,-1023.83 292.38,-1027.79 288.42,-1031.75 284.46,-1031.75"/>
<text text-anchor="middle" x="214.62" y="-1014.45" font-family="Arial" font-size="14.00" fill="#cfffac">components/ui/card.tsx</text>
</g>
<!-- components/ui/carousel.tsx -->
<g id="node27" class="node">
<title>components/ui/carousel.tsx</title>
<path fill="none" stroke="#cfffac" d="M296.83,-1073.75C296.83,-1073.75 132.42,-1073.75 132.42,-1073.75 128.46,-1073.75 124.5,-1069.79 124.5,-1065.83 124.5,-1065.83 124.5,-1057.92 124.5,-1057.92 124.5,-1053.96 128.46,-1050 132.42,-1050 132.42,-1050 296.83,-1050 296.83,-1050 300.79,-1050 304.75,-1053.96 304.75,-1057.92 304.75,-1057.92 304.75,-1065.83 304.75,-1065.83 304.75,-1069.79 300.79,-1073.75 296.83,-1073.75"/>
<text text-anchor="middle" x="214.62" y="-1056.45" font-family="Arial" font-size="14.00" fill="#cfffac">components/ui/carousel.tsx</text>
</g>
<!-- components/ui/chart.tsx -->
<g id="node28" class="node">
<title>components/ui/chart.tsx</title>
<path fill="none" stroke="#cfffac" d="M286.33,-1115.75C286.33,-1115.75 142.92,-1115.75 142.92,-1115.75 138.96,-1115.75 135,-1111.79 135,-1107.83 135,-1107.83 135,-1099.92 135,-1099.92 135,-1095.96 138.96,-1092 142.92,-1092 142.92,-1092 286.33,-1092 286.33,-1092 290.29,-1092 294.25,-1095.96 294.25,-1099.92 294.25,-1099.92 294.25,-1107.83 294.25,-1107.83 294.25,-1111.79 290.29,-1115.75 286.33,-1115.75"/>
<text text-anchor="middle" x="214.62" y="-1098.45" font-family="Arial" font-size="14.00" fill="#cfffac">components/ui/chart.tsx</text>
</g>
<!-- components/ui/checkbox.tsx -->
<g id="node29" class="node">
<title>components/ui/checkbox.tsx</title>
<path fill="none" stroke="#cfffac" d="M299.83,-1157.75C299.83,-1157.75 129.42,-1157.75 129.42,-1157.75 125.46,-1157.75 121.5,-1153.79 121.5,-1149.83 121.5,-1149.83 121.5,-1141.92 121.5,-1141.92 121.5,-1137.96 125.46,-1134 129.42,-1134 129.42,-1134 299.83,-1134 299.83,-1134 303.79,-1134 307.75,-1137.96 307.75,-1141.92 307.75,-1141.92 307.75,-1149.83 307.75,-1149.83 307.75,-1153.79 303.79,-1157.75 299.83,-1157.75"/>
<text text-anchor="middle" x="214.62" y="-1140.45" font-family="Arial" font-size="14.00" fill="#cfffac">components/ui/checkbox.tsx</text>
</g>
<!-- components/ui/collapsible.tsx -->
<g id="node30" class="node">
<title>components/ui/collapsible.tsx</title>
<path fill="none" stroke="#cfffac" d="M302.83,-1199.75C302.83,-1199.75 126.42,-1199.75 126.42,-1199.75 122.46,-1199.75 118.5,-1195.79 118.5,-1191.83 118.5,-1191.83 118.5,-1183.92 118.5,-1183.92 118.5,-1179.96 122.46,-1176 126.42,-1176 126.42,-1176 302.83,-1176 302.83,-1176 306.79,-1176 310.75,-1179.96 310.75,-1183.92 310.75,-1183.92 310.75,-1191.83 310.75,-1191.83 310.75,-1195.79 306.79,-1199.75 302.83,-1199.75"/>
<text text-anchor="middle" x="214.62" y="-1182.45" font-family="Arial" font-size="14.00" fill="#cfffac">components/ui/collapsible.tsx</text>
</g>
<!-- components/ui/command.tsx -->
<g id="node31" class="node">
<title>components/ui/command.tsx</title>
<path fill="none" stroke="#cfffac" d="M301.71,-1241.75C301.71,-1241.75 127.54,-1241.75 127.54,-1241.75 123.58,-1241.75 119.62,-1237.79 119.62,-1233.83 119.62,-1233.83 119.62,-1225.92 119.62,-1225.92 119.62,-1221.96 123.58,-1218 127.54,-1218 127.54,-1218 301.71,-1218 301.71,-1218 305.67,-1218 309.62,-1221.96 309.62,-1225.92 309.62,-1225.92 309.62,-1233.83 309.62,-1233.83 309.62,-1237.79 305.67,-1241.75 301.71,-1241.75"/>
<text text-anchor="middle" x="214.62" y="-1224.45" font-family="Arial" font-size="14.00" fill="#cfffac">components/ui/command.tsx</text>
</g>
<!-- components/ui/context&#45;menu.tsx -->
<g id="node32" class="node">
<title>components/ui/context&#45;menu.tsx</title>
<path fill="none" stroke="#cfffac" d="M312.58,-1283.75C312.58,-1283.75 116.67,-1283.75 116.67,-1283.75 112.71,-1283.75 108.75,-1279.79 108.75,-1275.83 108.75,-1275.83 108.75,-1267.92 108.75,-1267.92 108.75,-1263.96 112.71,-1260 116.67,-1260 116.67,-1260 312.58,-1260 312.58,-1260 316.54,-1260 320.5,-1263.96 320.5,-1267.92 320.5,-1267.92 320.5,-1275.83 320.5,-1275.83 320.5,-1279.79 316.54,-1283.75 312.58,-1283.75"/>
<text text-anchor="middle" x="214.62" y="-1266.45" font-family="Arial" font-size="14.00" fill="#cfffac">components/ui/context&#45;menu.tsx</text>
</g>
<!-- components/ui/dialog.tsx -->
<g id="node33" class="node">
<title>components/ui/dialog.tsx</title>
<path fill="none" stroke="#cfffac" d="M289.33,-1325.75C289.33,-1325.75 139.92,-1325.75 139.92,-1325.75 135.96,-1325.75 132,-1321.79 132,-1317.83 132,-1317.83 132,-1309.92 132,-1309.92 132,-1305.96 135.96,-1302 139.92,-1302 139.92,-1302 289.33,-1302 289.33,-1302 293.29,-1302 297.25,-1305.96 297.25,-1309.92 297.25,-1309.92 297.25,-1317.83 297.25,-1317.83 297.25,-1321.79 293.29,-1325.75 289.33,-1325.75"/>
<text text-anchor="middle" x="214.62" y="-1308.45" font-family="Arial" font-size="14.00" fill="#cfffac">components/ui/dialog.tsx</text>
</g>
<!-- components/ui/drawer.tsx -->
<g id="node34" class="node">
<title>components/ui/drawer.tsx</title>
<path fill="none" stroke="#cfffac" d="M291.58,-1367.75C291.58,-1367.75 137.67,-1367.75 137.67,-1367.75 133.71,-1367.75 129.75,-1363.79 129.75,-1359.83 129.75,-1359.83 129.75,-1351.92 129.75,-1351.92 129.75,-1347.96 133.71,-1344 137.67,-1344 137.67,-1344 291.58,-1344 291.58,-1344 295.54,-1344 299.5,-1347.96 299.5,-1351.92 299.5,-1351.92 299.5,-1359.83 299.5,-1359.83 299.5,-1363.79 295.54,-1367.75 291.58,-1367.75"/>
<text text-anchor="middle" x="214.62" y="-1350.45" font-family="Arial" font-size="14.00" fill="#cfffac">components/ui/drawer.tsx</text>
</g>
<!-- components/ui/dropdown&#45;menu.tsx -->
<g id="node35" class="node">
<title>components/ui/dropdown&#45;menu.tsx</title>
<path fill="none" stroke="#cfffac" d="M320.46,-1409.75C320.46,-1409.75 108.79,-1409.75 108.79,-1409.75 104.83,-1409.75 100.88,-1405.79 100.88,-1401.83 100.88,-1401.83 100.88,-1393.92 100.88,-1393.92 100.88,-1389.96 104.83,-1386 108.79,-1386 108.79,-1386 320.46,-1386 320.46,-1386 324.42,-1386 328.38,-1389.96 328.38,-1393.92 328.38,-1393.92 328.38,-1401.83 328.38,-1401.83 328.38,-1405.79 324.42,-1409.75 320.46,-1409.75"/>
<text text-anchor="middle" x="214.62" y="-1392.45" font-family="Arial" font-size="14.00" fill="#cfffac">components/ui/dropdown&#45;menu.tsx</text>
</g>
<!-- components/ui/form.tsx -->
<g id="node36" class="node">
<title>components/ui/form.tsx</title>
<path fill="none" stroke="#cfffac" d="M285.21,-1451.75C285.21,-1451.75 144.04,-1451.75 144.04,-1451.75 140.08,-1451.75 136.12,-1447.79 136.12,-1443.83 136.12,-1443.83 136.12,-1435.92 136.12,-1435.92 136.12,-1431.96 140.08,-1428 144.04,-1428 144.04,-1428 285.21,-1428 285.21,-1428 289.17,-1428 293.12,-1431.96 293.12,-1435.92 293.12,-1435.92 293.12,-1443.83 293.12,-1443.83 293.12,-1447.79 289.17,-1451.75 285.21,-1451.75"/>
<text text-anchor="middle" x="214.62" y="-1434.45" font-family="Arial" font-size="14.00" fill="#cfffac">components/ui/form.tsx</text>
</g>
<!-- components/ui/hover&#45;card.tsx -->
<g id="node37" class="node">
<title>components/ui/hover&#45;card.tsx</title>
<path fill="none" stroke="#cfffac" d="M303.58,-1493.75C303.58,-1493.75 125.67,-1493.75 125.67,-1493.75 121.71,-1493.75 117.75,-1489.79 117.75,-1485.83 117.75,-1485.83 117.75,-1477.92 117.75,-1477.92 117.75,-1473.96 121.71,-1470 125.67,-1470 125.67,-1470 303.58,-1470 303.58,-1470 307.54,-1470 311.5,-1473.96 311.5,-1477.92 311.5,-1477.92 311.5,-1485.83 311.5,-1485.83 311.5,-1489.79 307.54,-1493.75 303.58,-1493.75"/>
<text text-anchor="middle" x="214.62" y="-1476.45" font-family="Arial" font-size="14.00" fill="#cfffac">components/ui/hover&#45;card.tsx</text>
</g>
<!-- components/ui/input&#45;otp.tsx -->
<g id="node38" class="node">
<title>components/ui/input&#45;otp.tsx</title>
<path fill="none" stroke="#cfffac" d="M297.58,-1535.75C297.58,-1535.75 131.67,-1535.75 131.67,-1535.75 127.71,-1535.75 123.75,-1531.79 123.75,-1527.83 123.75,-1527.83 123.75,-1519.92 123.75,-1519.92 123.75,-1515.96 127.71,-1512 131.67,-1512 131.67,-1512 297.58,-1512 297.58,-1512 301.54,-1512 305.5,-1515.96 305.5,-1519.92 305.5,-1519.92 305.5,-1527.83 305.5,-1527.83 305.5,-1531.79 301.54,-1535.75 297.58,-1535.75"/>
<text text-anchor="middle" x="214.62" y="-1518.45" font-family="Arial" font-size="14.00" fill="#cfffac">components/ui/input&#45;otp.tsx</text>
</g>
<!-- components/ui/input.tsx -->
<g id="node39" class="node">
<title>components/ui/input.tsx</title>
<path fill="none" stroke="#cfffac" d="M285.96,-1577.75C285.96,-1577.75 143.29,-1577.75 143.29,-1577.75 139.33,-1577.75 135.38,-1573.79 135.38,-1569.83 135.38,-1569.83 135.38,-1561.92 135.38,-1561.92 135.38,-1557.96 139.33,-1554 143.29,-1554 143.29,-1554 285.96,-1554 285.96,-1554 289.92,-1554 293.88,-1557.96 293.88,-1561.92 293.88,-1561.92 293.88,-1569.83 293.88,-1569.83 293.88,-1573.79 289.92,-1577.75 285.96,-1577.75"/>
<text text-anchor="middle" x="214.62" y="-1560.45" font-family="Arial" font-size="14.00" fill="#cfffac">components/ui/input.tsx</text>
</g>
<!-- components/ui/label.tsx -->
<g id="node40" class="node">
<title>components/ui/label.tsx</title>
<path fill="none" stroke="#cfffac" d="M285.58,-1619.75C285.58,-1619.75 143.67,-1619.75 143.67,-1619.75 139.71,-1619.75 135.75,-1615.79 135.75,-1611.83 135.75,-1611.83 135.75,-1603.92 135.75,-1603.92 135.75,-1599.96 139.71,-1596 143.67,-1596 143.67,-1596 285.58,-1596 285.58,-1596 289.54,-1596 293.5,-1599.96 293.5,-1603.92 293.5,-1603.92 293.5,-1611.83 293.5,-1611.83 293.5,-1615.79 289.54,-1619.75 285.58,-1619.75"/>
<text text-anchor="middle" x="214.62" y="-1602.45" font-family="Arial" font-size="14.00" fill="#cfffac">components/ui/label.tsx</text>
</g>
<!-- components/ui/menubar.tsx -->
<g id="node41" class="node">
<title>components/ui/menubar.tsx</title>
<path fill="none" stroke="#cfffac" d="M297.96,-1661.75C297.96,-1661.75 131.29,-1661.75 131.29,-1661.75 127.33,-1661.75 123.38,-1657.79 123.38,-1653.83 123.38,-1653.83 123.38,-1645.92 123.38,-1645.92 123.38,-1641.96 127.33,-1638 131.29,-1638 131.29,-1638 297.96,-1638 297.96,-1638 301.92,-1638 305.88,-1641.96 305.88,-1645.92 305.88,-1645.92 305.88,-1653.83 305.88,-1653.83 305.88,-1657.79 301.92,-1661.75 297.96,-1661.75"/>
<text text-anchor="middle" x="214.62" y="-1644.45" font-family="Arial" font-size="14.00" fill="#cfffac">components/ui/menubar.tsx</text>
</g>
<!-- components/ui/navigation&#45;menu.tsx -->
<g id="node42" class="node">
<title>components/ui/navigation&#45;menu.tsx</title>
<path fill="none" stroke="#cfffac" d="M321.58,-1703.75C321.58,-1703.75 107.67,-1703.75 107.67,-1703.75 103.71,-1703.75 99.75,-1699.79 99.75,-1695.83 99.75,-1695.83 99.75,-1687.92 99.75,-1687.92 99.75,-1683.96 103.71,-1680 107.67,-1680 107.67,-1680 321.58,-1680 321.58,-1680 325.54,-1680 329.5,-1683.96 329.5,-1687.92 329.5,-1687.92 329.5,-1695.83 329.5,-1695.83 329.5,-1699.79 325.54,-1703.75 321.58,-1703.75"/>
<text text-anchor="middle" x="214.62" y="-1686.45" font-family="Arial" font-size="14.00" fill="#cfffac">components/ui/navigation&#45;menu.tsx</text>
</g>
<!-- components/ui/pagination.tsx -->
<g id="node43" class="node">
<title>components/ui/pagination.tsx</title>
<path fill="none" stroke="#cfffac" d="M302.46,-1745.75C302.46,-1745.75 126.79,-1745.75 126.79,-1745.75 122.83,-1745.75 118.88,-1741.79 118.88,-1737.83 118.88,-1737.83 118.88,-1729.92 118.88,-1729.92 118.88,-1725.96 122.83,-1722 126.79,-1722 126.79,-1722 302.46,-1722 302.46,-1722 306.42,-1722 310.38,-1725.96 310.38,-1729.92 310.38,-1729.92 310.38,-1737.83 310.38,-1737.83 310.38,-1741.79 306.42,-1745.75 302.46,-1745.75"/>
<text text-anchor="middle" x="214.62" y="-1728.45" font-family="Arial" font-size="14.00" fill="#cfffac">components/ui/pagination.tsx</text>
</g>
<!-- components/ui/popover.tsx -->
<g id="node44" class="node">
<title>components/ui/popover.tsx</title>
<path fill="none" stroke="#cfffac" d="M295.33,-1787.75C295.33,-1787.75 133.92,-1787.75 133.92,-1787.75 129.96,-1787.75 126,-1783.79 126,-1779.83 126,-1779.83 126,-1771.92 126,-1771.92 126,-1767.96 129.96,-1764 133.92,-1764 133.92,-1764 295.33,-1764 295.33,-1764 299.29,-1764 303.25,-1767.96 303.25,-1771.92 303.25,-1771.92 303.25,-1779.83 303.25,-1779.83 303.25,-1783.79 299.29,-1787.75 295.33,-1787.75"/>
<text text-anchor="middle" x="214.62" y="-1770.45" font-family="Arial" font-size="14.00" fill="#cfffac">components/ui/popover.tsx</text>
</g>
<!-- components/ui/progress.tsx -->
<g id="node45" class="node">
<title>components/ui/progress.tsx</title>
<path fill="none" stroke="#cfffac" d="M297.58,-1829.75C297.58,-1829.75 131.67,-1829.75 131.67,-1829.75 127.71,-1829.75 123.75,-1825.79 123.75,-1821.83 123.75,-1821.83 123.75,-1813.92 123.75,-1813.92 123.75,-1809.96 127.71,-1806 131.67,-1806 131.67,-1806 297.58,-1806 297.58,-1806 301.54,-1806 305.5,-1809.96 305.5,-1813.92 305.5,-1813.92 305.5,-1821.83 305.5,-1821.83 305.5,-1825.79 301.54,-1829.75 297.58,-1829.75"/>
<text text-anchor="middle" x="214.62" y="-1812.45" font-family="Arial" font-size="14.00" fill="#cfffac">components/ui/progress.tsx</text>
</g>
<!-- components/ui/radio&#45;group.tsx -->
<g id="node46" class="node">
<title>components/ui/radio&#45;group.tsx</title>
<path fill="none" stroke="#cfffac" d="M305.83,-1871.75C305.83,-1871.75 123.42,-1871.75 123.42,-1871.75 119.46,-1871.75 115.5,-1867.79 115.5,-1863.83 115.5,-1863.83 115.5,-1855.92 115.5,-1855.92 115.5,-1851.96 119.46,-1848 123.42,-1848 123.42,-1848 305.83,-1848 305.83,-1848 309.79,-1848 313.75,-1851.96 313.75,-1855.92 313.75,-1855.92 313.75,-1863.83 313.75,-1863.83 313.75,-1867.79 309.79,-1871.75 305.83,-1871.75"/>
<text text-anchor="middle" x="214.62" y="-1854.45" font-family="Arial" font-size="14.00" fill="#cfffac">components/ui/radio&#45;group.tsx</text>
</g>
<!-- components/ui/resizable.tsx -->
<g id="node47" class="node">
<title>components/ui/resizable.tsx</title>
<path fill="none" stroke="#cfffac" d="M298.33,-1913.75C298.33,-1913.75 130.92,-1913.75 130.92,-1913.75 126.96,-1913.75 123,-1909.79 123,-1905.83 123,-1905.83 123,-1897.92 123,-1897.92 123,-1893.96 126.96,-1890 130.92,-1890 130.92,-1890 298.33,-1890 298.33,-1890 302.29,-1890 306.25,-1893.96 306.25,-1897.92 306.25,-1897.92 306.25,-1905.83 306.25,-1905.83 306.25,-1909.79 302.29,-1913.75 298.33,-1913.75"/>
<text text-anchor="middle" x="214.62" y="-1896.45" font-family="Arial" font-size="14.00" fill="#cfffac">components/ui/resizable.tsx</text>
</g>
<!-- components/ui/scroll&#45;area.tsx -->
<g id="node48" class="node">
<title>components/ui/scroll&#45;area.tsx</title>
<path fill="none" stroke="#cfffac" d="M302.83,-1955.75C302.83,-1955.75 126.42,-1955.75 126.42,-1955.75 122.46,-1955.75 118.5,-1951.79 118.5,-1947.83 118.5,-1947.83 118.5,-1939.92 118.5,-1939.92 118.5,-1935.96 122.46,-1932 126.42,-1932 126.42,-1932 302.83,-1932 302.83,-1932 306.79,-1932 310.75,-1935.96 310.75,-1939.92 310.75,-1939.92 310.75,-1947.83 310.75,-1947.83 310.75,-1951.79 306.79,-1955.75 302.83,-1955.75"/>
<text text-anchor="middle" x="214.62" y="-1938.45" font-family="Arial" font-size="14.00" fill="#cfffac">components/ui/scroll&#45;area.tsx</text>
</g>
<!-- components/ui/select.tsx -->
<g id="node49" class="node">
<title>components/ui/select.tsx</title>
<path fill="none" stroke="#cfffac" d="M288.96,-1997.75C288.96,-1997.75 140.29,-1997.75 140.29,-1997.75 136.33,-1997.75 132.38,-1993.79 132.38,-1989.83 132.38,-1989.83 132.38,-1981.92 132.38,-1981.92 132.38,-1977.96 136.33,-1974 140.29,-1974 140.29,-1974 288.96,-1974 288.96,-1974 292.92,-1974 296.88,-1977.96 296.88,-1981.92 296.88,-1981.92 296.88,-1989.83 296.88,-1989.83 296.88,-1993.79 292.92,-1997.75 288.96,-1997.75"/>
<text text-anchor="middle" x="214.62" y="-1980.45" font-family="Arial" font-size="14.00" fill="#cfffac">components/ui/select.tsx</text>
</g>
<!-- components/ui/separator.tsx -->
<g id="node50" class="node">
<title>components/ui/separator.tsx</title>
<path fill="none" stroke="#cfffac" d="M299.46,-2039.75C299.46,-2039.75 129.79,-2039.75 129.79,-2039.75 125.83,-2039.75 121.88,-2035.79 121.88,-2031.83 121.88,-2031.83 121.88,-2023.92 121.88,-2023.92 121.88,-2019.96 125.83,-2016 129.79,-2016 129.79,-2016 299.46,-2016 299.46,-2016 303.42,-2016 307.38,-2019.96 307.38,-2023.92 307.38,-2023.92 307.38,-2031.83 307.38,-2031.83 307.38,-2035.79 303.42,-2039.75 299.46,-2039.75"/>
<text text-anchor="middle" x="214.62" y="-2022.45" font-family="Arial" font-size="14.00" fill="#cfffac">components/ui/separator.tsx</text>
</g>
<!-- components/ui/sheet.tsx -->
<g id="node51" class="node">
<title>components/ui/sheet.tsx</title>
<path fill="none" stroke="#cfffac" d="M287.83,-2081.75C287.83,-2081.75 141.42,-2081.75 141.42,-2081.75 137.46,-2081.75 133.5,-2077.79 133.5,-2073.83 133.5,-2073.83 133.5,-2065.92 133.5,-2065.92 133.5,-2061.96 137.46,-2058 141.42,-2058 141.42,-2058 287.83,-2058 287.83,-2058 291.79,-2058 295.75,-2061.96 295.75,-2065.92 295.75,-2065.92 295.75,-2073.83 295.75,-2073.83 295.75,-2077.79 291.79,-2081.75 287.83,-2081.75"/>
<text text-anchor="middle" x="214.62" y="-2064.45" font-family="Arial" font-size="14.00" fill="#cfffac">components/ui/sheet.tsx</text>
</g>
<!-- components/ui/sidebar.tsx -->
<g id="node52" class="node">
<title>components/ui/sidebar.tsx</title>
<path fill="none" stroke="#cfffac" d="M293.08,-2123.75C293.08,-2123.75 136.17,-2123.75 136.17,-2123.75 132.21,-2123.75 128.25,-2119.79 128.25,-2115.83 128.25,-2115.83 128.25,-2107.92 128.25,-2107.92 128.25,-2103.96 132.21,-2100 136.17,-2100 136.17,-2100 293.08,-2100 293.08,-2100 297.04,-2100 301,-2103.96 301,-2107.92 301,-2107.92 301,-2115.83 301,-2115.83 301,-2119.79 297.04,-2123.75 293.08,-2123.75"/>
<text text-anchor="middle" x="214.62" y="-2106.45" font-family="Arial" font-size="14.00" fill="#cfffac">components/ui/sidebar.tsx</text>
</g>
<!-- components/ui/skeleton.tsx -->
<g id="node53" class="node">
<title>components/ui/skeleton.tsx</title>
<path fill="none" stroke="#cfffac" d="M296.46,-2165.75C296.46,-2165.75 132.79,-2165.75 132.79,-2165.75 128.83,-2165.75 124.88,-2161.79 124.88,-2157.83 124.88,-2157.83 124.88,-2149.92 124.88,-2149.92 124.88,-2145.96 128.83,-2142 132.79,-2142 132.79,-2142 296.46,-2142 296.46,-2142 300.42,-2142 304.38,-2145.96 304.38,-2149.92 304.38,-2149.92 304.38,-2157.83 304.38,-2157.83 304.38,-2161.79 300.42,-2165.75 296.46,-2165.75"/>
<text text-anchor="middle" x="214.62" y="-2148.45" font-family="Arial" font-size="14.00" fill="#cfffac">components/ui/skeleton.tsx</text>
</g>
<!-- components/ui/slider.tsx -->
<g id="node54" class="node">
<title>components/ui/slider.tsx</title>
<path fill="none" stroke="#cfffac" d="M287.08,-2207.75C287.08,-2207.75 142.17,-2207.75 142.17,-2207.75 138.21,-2207.75 134.25,-2203.79 134.25,-2199.83 134.25,-2199.83 134.25,-2191.92 134.25,-2191.92 134.25,-2187.96 138.21,-2184 142.17,-2184 142.17,-2184 287.08,-2184 287.08,-2184 291.04,-2184 295,-2187.96 295,-2191.92 295,-2191.92 295,-2199.83 295,-2199.83 295,-2203.79 291.04,-2207.75 287.08,-2207.75"/>
<text text-anchor="middle" x="214.62" y="-2190.45" font-family="Arial" font-size="14.00" fill="#cfffac">components/ui/slider.tsx</text>
</g>
<!-- components/ui/sonner.tsx -->
<g id="node55" class="node">
<title>components/ui/sonner.tsx</title>
<path fill="none" stroke="#cfffac" d="M291.58,-2249.75C291.58,-2249.75 137.67,-2249.75 137.67,-2249.75 133.71,-2249.75 129.75,-2245.79 129.75,-2241.83 129.75,-2241.83 129.75,-2233.92 129.75,-2233.92 129.75,-2229.96 133.71,-2226 137.67,-2226 137.67,-2226 291.58,-2226 291.58,-2226 295.54,-2226 299.5,-2229.96 299.5,-2233.92 299.5,-2233.92 299.5,-2241.83 299.5,-2241.83 299.5,-2245.79 295.54,-2249.75 291.58,-2249.75"/>
<text text-anchor="middle" x="214.62" y="-2232.45" font-family="Arial" font-size="14.00" fill="#cfffac">components/ui/sonner.tsx</text>
</g>
<!-- components/ui/switch.tsx -->
<g id="node56" class="node">
<title>components/ui/switch.tsx</title>
<path fill="none" stroke="#cfffac" d="M290.08,-2291.75C290.08,-2291.75 139.17,-2291.75 139.17,-2291.75 135.21,-2291.75 131.25,-2287.79 131.25,-2283.83 131.25,-2283.83 131.25,-2275.92 131.25,-2275.92 131.25,-2271.96 135.21,-2268 139.17,-2268 139.17,-2268 290.08,-2268 290.08,-2268 294.04,-2268 298,-2271.96 298,-2275.92 298,-2275.92 298,-2283.83 298,-2283.83 298,-2287.79 294.04,-2291.75 290.08,-2291.75"/>
<text text-anchor="middle" x="214.62" y="-2274.45" font-family="Arial" font-size="14.00" fill="#cfffac">components/ui/switch.tsx</text>
</g>
<!-- components/ui/table.tsx -->
<g id="node57" class="node">
<title>components/ui/table.tsx</title>
<path fill="none" stroke="#cfffac" d="M285.96,-2333.75C285.96,-2333.75 143.29,-2333.75 143.29,-2333.75 139.33,-2333.75 135.38,-2329.79 135.38,-2325.83 135.38,-2325.83 135.38,-2317.92 135.38,-2317.92 135.38,-2313.96 139.33,-2310 143.29,-2310 143.29,-2310 285.96,-2310 285.96,-2310 289.92,-2310 293.88,-2313.96 293.88,-2317.92 293.88,-2317.92 293.88,-2325.83 293.88,-2325.83 293.88,-2329.79 289.92,-2333.75 285.96,-2333.75"/>
<text text-anchor="middle" x="214.62" y="-2316.45" font-family="Arial" font-size="14.00" fill="#cfffac">components/ui/table.tsx</text>
</g>
<!-- components/ui/tabs.tsx -->
<g id="node58" class="node">
<title>components/ui/tabs.tsx</title>
<path fill="none" stroke="#cfffac" d="M284.08,-2375.75C284.08,-2375.75 145.17,-2375.75 145.17,-2375.75 141.21,-2375.75 137.25,-2371.79 137.25,-2367.83 137.25,-2367.83 137.25,-2359.92 137.25,-2359.92 137.25,-2355.96 141.21,-2352 145.17,-2352 145.17,-2352 284.08,-2352 284.08,-2352 288.04,-2352 292,-2355.96 292,-2359.92 292,-2359.92 292,-2367.83 292,-2367.83 292,-2371.79 288.04,-2375.75 284.08,-2375.75"/>
<text text-anchor="middle" x="214.62" y="-2358.45" font-family="Arial" font-size="14.00" fill="#cfffac">components/ui/tabs.tsx</text>
</g>
<!-- components/ui/textarea.tsx -->
<g id="node59" class="node">
<title>components/ui/textarea.tsx</title>
<path fill="none" stroke="#cfffac" d="M295.71,-2417.75C295.71,-2417.75 133.54,-2417.75 133.54,-2417.75 129.58,-2417.75 125.62,-2413.79 125.62,-2409.83 125.62,-2409.83 125.62,-2401.92 125.62,-2401.92 125.62,-2397.96 129.58,-2394 133.54,-2394 133.54,-2394 295.71,-2394 295.71,-2394 299.67,-2394 303.62,-2397.96 303.62,-2401.92 303.62,-2401.92 303.62,-2409.83 303.62,-2409.83 303.62,-2413.79 299.67,-2417.75 295.71,-2417.75"/>
<text text-anchor="middle" x="214.62" y="-2400.45" font-family="Arial" font-size="14.00" fill="#cfffac">components/ui/textarea.tsx</text>
</g>
<!-- components/ui/toast.tsx -->
<g id="node60" class="node">
<title>components/ui/toast.tsx</title>
<path fill="none" stroke="#cfffac" d="M285.96,-2459.75C285.96,-2459.75 143.29,-2459.75 143.29,-2459.75 139.33,-2459.75 135.38,-2455.79 135.38,-2451.83 135.38,-2451.83 135.38,-2443.92 135.38,-2443.92 135.38,-2439.96 139.33,-2436 143.29,-2436 143.29,-2436 285.96,-2436 285.96,-2436 289.92,-2436 293.88,-2439.96 293.88,-2443.92 293.88,-2443.92 293.88,-2451.83 293.88,-2451.83 293.88,-2455.79 289.92,-2459.75 285.96,-2459.75"/>
<text text-anchor="middle" x="214.62" y="-2442.45" font-family="Arial" font-size="14.00" fill="#cfffac">components/ui/toast.tsx</text>
</g>
<!-- components/ui/toaster.tsx -->
<g id="node61" class="node">
<title>components/ui/toaster.tsx</title>
<path fill="none" stroke="#cfffac" d="M291.58,-2501.75C291.58,-2501.75 137.67,-2501.75 137.67,-2501.75 133.71,-2501.75 129.75,-2497.79 129.75,-2493.83 129.75,-2493.83 129.75,-2485.92 129.75,-2485.92 129.75,-2481.96 133.71,-2478 137.67,-2478 137.67,-2478 291.58,-2478 291.58,-2478 295.54,-2478 299.5,-2481.96 299.5,-2485.92 299.5,-2485.92 299.5,-2493.83 299.5,-2493.83 299.5,-2497.79 295.54,-2501.75 291.58,-2501.75"/>
<text text-anchor="middle" x="214.62" y="-2484.45" font-family="Arial" font-size="14.00" fill="#cfffac">components/ui/toaster.tsx</text>
</g>
<!-- components/ui/toggle&#45;group.tsx -->
<g id="node62" class="node">
<title>components/ui/toggle&#45;group.tsx</title>
<path fill="none" stroke="#cfffac" d="M309.21,-2543.75C309.21,-2543.75 120.04,-2543.75 120.04,-2543.75 116.08,-2543.75 112.12,-2539.79 112.12,-2535.83 112.12,-2535.83 112.12,-2527.92 112.12,-2527.92 112.12,-2523.96 116.08,-2520 120.04,-2520 120.04,-2520 309.21,-2520 309.21,-2520 313.17,-2520 317.12,-2523.96 317.12,-2527.92 317.12,-2527.92 317.12,-2535.83 317.12,-2535.83 317.12,-2539.79 313.17,-2543.75 309.21,-2543.75"/>
<text text-anchor="middle" x="214.62" y="-2526.45" font-family="Arial" font-size="14.00" fill="#cfffac">components/ui/toggle&#45;group.tsx</text>
</g>
<!-- components/ui/toggle.tsx -->
<g id="node63" class="node">
<title>components/ui/toggle.tsx</title>
<path fill="none" stroke="#cfffac" d="M289.71,-2585.75C289.71,-2585.75 139.54,-2585.75 139.54,-2585.75 135.58,-2585.75 131.62,-2581.79 131.62,-2577.83 131.62,-2577.83 131.62,-2569.92 131.62,-2569.92 131.62,-2565.96 135.58,-2562 139.54,-2562 139.54,-2562 289.71,-2562 289.71,-2562 293.67,-2562 297.62,-2565.96 297.62,-2569.92 297.62,-2569.92 297.62,-2577.83 297.62,-2577.83 297.62,-2581.79 293.67,-2585.75 289.71,-2585.75"/>
<text text-anchor="middle" x="214.62" y="-2568.45" font-family="Arial" font-size="14.00" fill="#cfffac">components/ui/toggle.tsx</text>
</g>
<!-- components/ui/tooltip.tsx -->
<g id="node64" class="node">
<title>components/ui/tooltip.tsx</title>
<path fill="none" stroke="#cfffac" d="M289.33,-2627.75C289.33,-2627.75 139.92,-2627.75 139.92,-2627.75 135.96,-2627.75 132,-2623.79 132,-2619.83 132,-2619.83 132,-2611.92 132,-2611.92 132,-2607.96 135.96,-2604 139.92,-2604 139.92,-2604 289.33,-2604 289.33,-2604 293.29,-2604 297.25,-2607.96 297.25,-2611.92 297.25,-2611.92 297.25,-2619.83 297.25,-2619.83 297.25,-2623.79 293.29,-2627.75 289.33,-2627.75"/>
<text text-anchor="middle" x="214.62" y="-2610.45" font-family="Arial" font-size="14.00" fill="#cfffac">components/ui/tooltip.tsx</text>
</g>
<!-- components/ui/use&#45;mobile.tsx -->
<g id="node65" class="node">
<title>components/ui/use&#45;mobile.tsx</title>
<path fill="none" stroke="#cfffac" d="M304.71,-2669.75C304.71,-2669.75 124.54,-2669.75 124.54,-2669.75 120.58,-2669.75 116.62,-2665.79 116.62,-2661.83 116.62,-2661.83 116.62,-2653.92 116.62,-2653.92 116.62,-2649.96 120.58,-2646 124.54,-2646 124.54,-2646 304.71,-2646 304.71,-2646 308.67,-2646 312.62,-2649.96 312.62,-2653.92 312.62,-2653.92 312.62,-2661.83 312.62,-2661.83 312.62,-2665.79 308.67,-2669.75 304.71,-2669.75"/>
<text text-anchor="middle" x="214.62" y="-2652.45" font-family="Arial" font-size="14.00" fill="#cfffac">components/ui/use&#45;mobile.tsx</text>
</g>
<!-- components/ui/use&#45;toast.ts -->
<g id="node66" class="node">
<title>components/ui/use&#45;toast.ts</title>
<path fill="none" stroke="#cfffac" d="M295.71,-2711.75C295.71,-2711.75 133.54,-2711.75 133.54,-2711.75 129.58,-2711.75 125.62,-2707.79 125.62,-2703.83 125.62,-2703.83 125.62,-2695.92 125.62,-2695.92 125.62,-2691.96 129.58,-2688 133.54,-2688 133.54,-2688 295.71,-2688 295.71,-2688 299.67,-2688 303.62,-2691.96 303.62,-2695.92 303.62,-2695.92 303.62,-2703.83 303.62,-2703.83 303.62,-2707.79 299.67,-2711.75 295.71,-2711.75"/>
<text text-anchor="middle" x="214.62" y="-2694.45" font-family="Arial" font-size="14.00" fill="#cfffac">components/ui/use&#45;toast.ts</text>
</g>
<!-- config/clients.ts -->
<g id="node67" class="node">
<title>config/clients.ts</title>
<path fill="none" stroke="#cfffac" d="M260.83,-2753.75C260.83,-2753.75 168.42,-2753.75 168.42,-2753.75 164.46,-2753.75 160.5,-2749.79 160.5,-2745.83 160.5,-2745.83 160.5,-2737.92 160.5,-2737.92 160.5,-2733.96 164.46,-2730 168.42,-2730 168.42,-2730 260.83,-2730 260.83,-2730 264.79,-2730 268.75,-2733.96 268.75,-2737.92 268.75,-2737.92 268.75,-2745.83 268.75,-2745.83 268.75,-2749.79 264.79,-2753.75 260.83,-2753.75"/>
<text text-anchor="middle" x="214.62" y="-2736.45" font-family="Arial" font-size="14.00" fill="#cfffac">config/clients.ts</text>
</g>
<!-- config/i18n&#45;config.ts -->
<g id="node68" class="node">
<title>config/i18n&#45;config.ts</title>
<path fill="none" stroke="#cfffac" d="M274.71,-2795.75C274.71,-2795.75 154.54,-2795.75 154.54,-2795.75 150.58,-2795.75 146.62,-2791.79 146.62,-2787.83 146.62,-2787.83 146.62,-2779.92 146.62,-2779.92 146.62,-2775.96 150.58,-2772 154.54,-2772 154.54,-2772 274.71,-2772 274.71,-2772 278.67,-2772 282.62,-2775.96 282.62,-2779.92 282.62,-2779.92 282.62,-2787.83 282.62,-2787.83 282.62,-2791.79 278.67,-2795.75 274.71,-2795.75"/>
<text text-anchor="middle" x="214.62" y="-2778.45" font-family="Arial" font-size="14.00" fill="#cfffac">config/i18n&#45;config.ts</text>
</g>
<!-- context/language&#45;context.tsx -->
<g id="node69" class="node">
<title>context/language&#45;context.tsx</title>
<path fill="none" stroke="#cfffac" d="M300.58,-2837.75C300.58,-2837.75 128.67,-2837.75 128.67,-2837.75 124.71,-2837.75 120.75,-2833.79 120.75,-2829.83 120.75,-2829.83 120.75,-2821.92 120.75,-2821.92 120.75,-2817.96 124.71,-2814 128.67,-2814 128.67,-2814 300.58,-2814 300.58,-2814 304.54,-2814 308.5,-2817.96 308.5,-2821.92 308.5,-2821.92 308.5,-2829.83 308.5,-2829.83 308.5,-2833.79 304.54,-2837.75 300.58,-2837.75"/>
<text text-anchor="middle" x="214.62" y="-2820.45" font-family="Arial" font-size="14.00" fill="#cfffac">context/language&#45;context.tsx</text>
</g>
<!-- context/theme&#45;context.tsx -->
<g id="node70" class="node">
<title>context/theme&#45;context.tsx</title>
<path fill="none" stroke="#cfffac" d="M291.96,-2879.75C291.96,-2879.75 137.29,-2879.75 137.29,-2879.75 133.33,-2879.75 129.38,-2875.79 129.38,-2871.83 129.38,-2871.83 129.38,-2863.92 129.38,-2863.92 129.38,-2859.96 133.33,-2856 137.29,-2856 137.29,-2856 291.96,-2856 291.96,-2856 295.92,-2856 299.88,-2859.96 299.88,-2863.92 299.88,-2863.92 299.88,-2871.83 299.88,-2871.83 299.88,-2875.79 295.92,-2879.75 291.96,-2879.75"/>
<text text-anchor="middle" x="214.62" y="-2862.45" font-family="Arial" font-size="14.00" fill="#cfffac">context/theme&#45;context.tsx</text>
</g>
<!-- features/clients/client&#45;card.module.css -->
<g id="node71" class="node">
<title>features/clients/client&#45;card.module.css</title>
<path fill="none" stroke="#cfffac" d="M729.46,-2921.75C729.46,-2921.75 499.79,-2921.75 499.79,-2921.75 495.83,-2921.75 491.88,-2917.79 491.88,-2913.83 491.88,-2913.83 491.88,-2905.92 491.88,-2905.92 491.88,-2901.96 495.83,-2898 499.79,-2898 499.79,-2898 729.46,-2898 729.46,-2898 733.42,-2898 737.38,-2901.96 737.38,-2905.92 737.38,-2905.92 737.38,-2913.83 737.38,-2913.83 737.38,-2917.79 733.42,-2921.75 729.46,-2921.75"/>
<text text-anchor="middle" x="614.62" y="-2904.45" font-family="Arial" font-size="14.00" fill="#cfffac">features/clients/client&#45;card.module.css</text>
</g>
<!-- features/clients/client&#45;card.tsx -->
<g id="node72" class="node">
<title>features/clients/client&#45;card.tsx</title>
<path fill="none" stroke="#c6c5fe" d="M303.58,-2921.75C303.58,-2921.75 125.67,-2921.75 125.67,-2921.75 121.71,-2921.75 117.75,-2917.79 117.75,-2913.83 117.75,-2913.83 117.75,-2905.92 117.75,-2905.92 117.75,-2901.96 121.71,-2898 125.67,-2898 125.67,-2898 303.58,-2898 303.58,-2898 307.54,-2898 311.5,-2901.96 311.5,-2905.92 311.5,-2905.92 311.5,-2913.83 311.5,-2913.83 311.5,-2917.79 307.54,-2921.75 303.58,-2921.75"/>
<text text-anchor="middle" x="214.62" y="-2904.45" font-family="Arial" font-size="14.00" fill="#c6c5fe">features/clients/client&#45;card.tsx</text>
</g>
<!-- features/clients/client&#45;card.tsx&#45;&gt;features/clients/client&#45;card.module.css -->
<g id="edge2" class="edge">
<title>features/clients/client&#45;card.tsx&#45;&gt;features/clients/client&#45;card.module.css</title>
<path fill="none" stroke="#757575" d="M311.97,-2909.88C362.44,-2909.88 425.04,-2909.88 480.12,-2909.88"/>
<polygon fill="#757575" stroke="#757575" points="479.87,-2913.38 489.87,-2909.88 479.87,-2906.38 479.87,-2913.38"/>
</g>
<!-- features/clients/happy&#45;clients&#45;slider.module.css -->
<g id="node73" class="node">
<title>features/clients/happy&#45;clients&#45;slider.module.css</title>
<path fill="none" stroke="#cfffac" d="M756.08,-2963.75C756.08,-2963.75 473.17,-2963.75 473.17,-2963.75 469.21,-2963.75 465.25,-2959.79 465.25,-2955.83 465.25,-2955.83 465.25,-2947.92 465.25,-2947.92 465.25,-2943.96 469.21,-2940 473.17,-2940 473.17,-2940 756.08,-2940 756.08,-2940 760.04,-2940 764,-2943.96 764,-2947.92 764,-2947.92 764,-2955.83 764,-2955.83 764,-2959.79 760.04,-2963.75 756.08,-2963.75"/>
<text text-anchor="middle" x="614.62" y="-2946.45" font-family="Arial" font-size="14.00" fill="#cfffac">features/clients/happy&#45;clients&#45;slider.module.css</text>
</g>
<!-- features/clients/happy&#45;clients&#45;slider.tsx -->
<g id="node74" class="node">
<title>features/clients/happy&#45;clients&#45;slider.tsx</title>
<path fill="none" stroke="#c6c5fe" d="M330.21,-2963.75C330.21,-2963.75 99.04,-2963.75 99.04,-2963.75 95.08,-2963.75 91.12,-2959.79 91.12,-2955.83 91.12,-2955.83 91.12,-2947.92 91.12,-2947.92 91.12,-2943.96 95.08,-2940 99.04,-2940 99.04,-2940 330.21,-2940 330.21,-2940 334.17,-2940 338.12,-2943.96 338.12,-2947.92 338.12,-2947.92 338.12,-2955.83 338.12,-2955.83 338.12,-2959.79 334.17,-2963.75 330.21,-2963.75"/>
<text text-anchor="middle" x="214.62" y="-2946.45" font-family="Arial" font-size="14.00" fill="#c6c5fe">features/clients/happy&#45;clients&#45;slider.tsx</text>
</g>
<!-- features/clients/happy&#45;clients&#45;slider.tsx&#45;&gt;features/clients/happy&#45;clients&#45;slider.module.css -->
<g id="edge3" class="edge">
<title>features/clients/happy&#45;clients&#45;slider.tsx&#45;&gt;features/clients/happy&#45;clients&#45;slider.module.css</title>
<path fill="none" stroke="#757575" d="M338.56,-2951.88C374.93,-2951.88 415.29,-2951.88 453.64,-2951.88"/>
<polygon fill="#757575" stroke="#757575" points="453.42,-2955.38 463.42,-2951.88 453.42,-2948.38 453.42,-2955.38"/>
</g>
<!-- features/clients/index.ts -->
<g id="node75" class="node">
<title>features/clients/index.ts</title>
<path fill="none" stroke="#cfffac" d="M285.21,-3005.75C285.21,-3005.75 144.04,-3005.75 144.04,-3005.75 140.08,-3005.75 136.12,-3001.79 136.12,-2997.83 136.12,-2997.83 136.12,-2989.92 136.12,-2989.92 136.12,-2985.96 140.08,-2982 144.04,-2982 144.04,-2982 285.21,-2982 285.21,-2982 289.17,-2982 293.12,-2985.96 293.12,-2989.92 293.12,-2989.92 293.12,-2997.83 293.12,-2997.83 293.12,-3001.79 289.17,-3005.75 285.21,-3005.75"/>
<text text-anchor="middle" x="214.62" y="-2988.45" font-family="Arial" font-size="14.00" fill="#cfffac">features/clients/index.ts</text>
</g>
<!-- features/contact/contact.module.css -->
<g id="node76" class="node">
<title>features/contact/contact.module.css</title>
<path fill="none" stroke="#cfffac" d="M722.71,-3047.75C722.71,-3047.75 506.54,-3047.75 506.54,-3047.75 502.58,-3047.75 498.62,-3043.79 498.62,-3039.83 498.62,-3039.83 498.62,-3031.92 498.62,-3031.92 498.62,-3027.96 502.58,-3024 506.54,-3024 506.54,-3024 722.71,-3024 722.71,-3024 726.67,-3024 730.62,-3027.96 730.62,-3031.92 730.62,-3031.92 730.62,-3039.83 730.62,-3039.83 730.62,-3043.79 726.67,-3047.75 722.71,-3047.75"/>
<text text-anchor="middle" x="614.62" y="-3030.45" font-family="Arial" font-size="14.00" fill="#cfffac">features/contact/contact.module.css</text>
</g>
<!-- features/contact/contact.tsx -->
<g id="node77" class="node">
<title>features/contact/contact.tsx</title>
<path fill="none" stroke="#c6c5fe" d="M296.83,-3047.75C296.83,-3047.75 132.42,-3047.75 132.42,-3047.75 128.46,-3047.75 124.5,-3043.79 124.5,-3039.83 124.5,-3039.83 124.5,-3031.92 124.5,-3031.92 124.5,-3027.96 128.46,-3024 132.42,-3024 132.42,-3024 296.83,-3024 296.83,-3024 300.79,-3024 304.75,-3027.96 304.75,-3031.92 304.75,-3031.92 304.75,-3039.83 304.75,-3039.83 304.75,-3043.79 300.79,-3047.75 296.83,-3047.75"/>
<text text-anchor="middle" x="214.62" y="-3030.45" font-family="Arial" font-size="14.00" fill="#c6c5fe">features/contact/contact.tsx</text>
</g>
<!-- features/contact/contact.tsx&#45;&gt;features/contact/contact.module.css -->
<g id="edge4" class="edge">
<title>features/contact/contact.tsx&#45;&gt;features/contact/contact.module.css</title>
<path fill="none" stroke="#757575" d="M304.94,-3035.88C358.56,-3035.88 427.61,-3035.88 486.81,-3035.88"/>
<polygon fill="#757575" stroke="#757575" points="486.62,-3039.38 496.62,-3035.88 486.62,-3032.38 486.62,-3039.38"/>
</g>
<!-- features/content&#45;creators/content&#45;creators&#45;page.tsx -->
<g id="node78" class="node">
<title>features/content&#45;creators/content&#45;creators&#45;page.tsx</title>
<path fill="none" stroke="#c6c5fe" d="M368.08,-3089.75C368.08,-3089.75 61.17,-3089.75 61.17,-3089.75 57.21,-3089.75 53.25,-3085.79 53.25,-3081.83 53.25,-3081.83 53.25,-3073.92 53.25,-3073.92 53.25,-3069.96 57.21,-3066 61.17,-3066 61.17,-3066 368.08,-3066 368.08,-3066 372.04,-3066 376,-3069.96 376,-3073.92 376,-3073.92 376,-3081.83 376,-3081.83 376,-3085.79 372.04,-3089.75 368.08,-3089.75"/>
<text text-anchor="middle" x="214.62" y="-3072.45" font-family="Arial" font-size="14.00" fill="#c6c5fe">features/content&#45;creators/content&#45;creators&#45;page.tsx</text>
</g>
<!-- features/content&#45;creators/content&#45;tabs.tsx -->
<g id="node79" class="node">
<title>features/content&#45;creators/content&#45;tabs.tsx</title>
<path fill="none" stroke="#c6c5fe" d="M739.21,-3089.75C739.21,-3089.75 490.04,-3089.75 490.04,-3089.75 486.08,-3089.75 482.12,-3085.79 482.12,-3081.83 482.12,-3081.83 482.12,-3073.92 482.12,-3073.92 482.12,-3069.96 486.08,-3066 490.04,-3066 490.04,-3066 739.21,-3066 739.21,-3066 743.17,-3066 747.12,-3069.96 747.12,-3073.92 747.12,-3073.92 747.12,-3081.83 747.12,-3081.83 747.12,-3085.79 743.17,-3089.75 739.21,-3089.75"/>
<text text-anchor="middle" x="614.62" y="-3072.45" font-family="Arial" font-size="14.00" fill="#c6c5fe">features/content&#45;creators/content&#45;tabs.tsx</text>
</g>
<!-- features/content&#45;creators/content&#45;creators&#45;page.tsx&#45;&gt;features/content&#45;creators/content&#45;tabs.tsx -->
<g id="edge5" class="edge">
<title>features/content&#45;creators/content&#45;creators&#45;page.tsx&#45;&gt;features/content&#45;creators/content&#45;tabs.tsx</title>
<path fill="none" stroke="#757575" d="M376.36,-3077.88C407.58,-3077.88 440.11,-3077.88 470.72,-3077.88"/>
<polygon fill="#757575" stroke="#757575" points="470.38,-3081.38 480.38,-3077.88 470.38,-3074.38 470.38,-3081.38"/>
</g>
<!-- features/content&#45;creators/content&#45;tabs.module.css -->
<g id="node80" class="node">
<title>features/content&#45;creators/content&#45;tabs.module.css</title>
<path fill="none" stroke="#cfffac" d="M1108.83,-3089.75C1108.83,-3089.75 807.92,-3089.75 807.92,-3089.75 803.96,-3089.75 800,-3085.79 800,-3081.83 800,-3081.83 800,-3073.92 800,-3073.92 800,-3069.96 803.96,-3066 807.92,-3066 807.92,-3066 1108.83,-3066 1108.83,-3066 1112.79,-3066 1116.75,-3069.96 1116.75,-3073.92 1116.75,-3073.92 1116.75,-3081.83 1116.75,-3081.83 1116.75,-3085.79 1112.79,-3089.75 1108.83,-3089.75"/>
<text text-anchor="middle" x="958.38" y="-3072.45" font-family="Arial" font-size="14.00" fill="#cfffac">features/content&#45;creators/content&#45;tabs.module.css</text>
</g>
<!-- features/content&#45;creators/content&#45;tabs.tsx&#45;&gt;features/content&#45;creators/content&#45;tabs.module.css -->
<g id="edge6" class="edge">
<title>features/content&#45;creators/content&#45;tabs.tsx&#45;&gt;features/content&#45;creators/content&#45;tabs.module.css</title>
<path fill="none" stroke="#757575" d="M747.27,-3077.88C760.63,-3077.88 774.34,-3077.88 788.03,-3077.88"/>
<polygon fill="#757575" stroke="#757575" points="788.01,-3081.38 798.01,-3077.88 788.01,-3074.38 788.01,-3081.38"/>
</g>
<!-- features/ecommerce&#45;photography/ecommerce&#45;photography&#45;story.tsx -->
<g id="node81" class="node">
<title>features/ecommerce&#45;photography/ecommerce&#45;photography&#45;story.tsx</title>
<path fill="none" stroke="#cfffac" d="M421.33,-3131.75C421.33,-3131.75 7.92,-3131.75 7.92,-3131.75 3.96,-3131.75 0,-3127.79 0,-3123.83 0,-3123.83 0,-3115.92 0,-3115.92 0,-3111.96 3.96,-3108 7.92,-3108 7.92,-3108 421.33,-3108 421.33,-3108 425.29,-3108 429.25,-3111.96 429.25,-3115.92 429.25,-3115.92 429.25,-3123.83 429.25,-3123.83 429.25,-3127.79 425.29,-3131.75 421.33,-3131.75"/>
<text text-anchor="middle" x="214.62" y="-3114.45" font-family="Arial" font-size="14.00" fill="#cfffac">features/ecommerce&#45;photography/ecommerce&#45;photography&#45;story.tsx</text>
</g>
<!-- features/events/event&#45;coverage&#45;story.tsx -->
<g id="node82" class="node">
<title>features/events/event&#45;coverage&#45;story.tsx</title>
<path fill="none" stroke="#cfffac" d="M736.21,-3173.75C736.21,-3173.75 493.04,-3173.75 493.04,-3173.75 489.08,-3173.75 485.12,-3169.79 485.12,-3165.83 485.12,-3165.83 485.12,-3157.92 485.12,-3157.92 485.12,-3153.96 489.08,-3150 493.04,-3150 493.04,-3150 736.21,-3150 736.21,-3150 740.17,-3150 744.12,-3153.96 744.12,-3157.92 744.12,-3157.92 744.12,-3165.83 744.12,-3165.83 744.12,-3169.79 740.17,-3173.75 736.21,-3173.75"/>
<text text-anchor="middle" x="614.62" y="-3156.45" font-family="Arial" font-size="14.00" fill="#cfffac">features/events/event&#45;coverage&#45;story.tsx</text>
</g>
<!-- features/events/event&#45;coverage.tsx -->
<g id="node83" class="node">
<title>features/events/event&#45;coverage.tsx</title>
<path fill="none" stroke="#c6c5fe" d="M319.71,-3173.75C319.71,-3173.75 109.54,-3173.75 109.54,-3173.75 105.58,-3173.75 101.62,-3169.79 101.62,-3165.83 101.62,-3165.83 101.62,-3157.92 101.62,-3157.92 101.62,-3153.96 105.58,-3150 109.54,-3150 109.54,-3150 319.71,-3150 319.71,-3150 323.67,-3150 327.62,-3153.96 327.62,-3157.92 327.62,-3157.92 327.62,-3165.83 327.62,-3165.83 327.62,-3169.79 323.67,-3173.75 319.71,-3173.75"/>
<text text-anchor="middle" x="214.62" y="-3156.45" font-family="Arial" font-size="14.00" fill="#c6c5fe">features/events/event&#45;coverage.tsx</text>
</g>
<!-- features/events/event&#45;coverage.tsx&#45;&gt;features/events/event&#45;coverage&#45;story.tsx -->
<g id="edge7" class="edge">
<title>features/events/event&#45;coverage.tsx&#45;&gt;features/events/event&#45;coverage&#45;story.tsx</title>
<path fill="none" stroke="#757575" d="M328.08,-3161.88C373.3,-3161.88 425.93,-3161.88 473.59,-3161.88"/>
<polygon fill="#757575" stroke="#757575" points="473.44,-3165.38 483.44,-3161.88 473.44,-3158.38 473.44,-3165.38"/>
</g>
<!-- features/formulario/DisintegrateText.tsx -->
<g id="node84" class="node">
<title>features/formulario/DisintegrateText.tsx</title>
<path fill="none" stroke="#cfffac" d="M1075.83,-3236.75C1075.83,-3236.75 840.92,-3236.75 840.92,-3236.75 836.96,-3236.75 833,-3232.79 833,-3228.83 833,-3228.83 833,-3220.92 833,-3220.92 833,-3216.96 836.96,-3213 840.92,-3213 840.92,-3213 1075.83,-3213 1075.83,-3213 1079.79,-3213 1083.75,-3216.96 1083.75,-3220.92 1083.75,-3220.92 1083.75,-3228.83 1083.75,-3228.83 1083.75,-3232.79 1079.79,-3236.75 1075.83,-3236.75"/>
<text text-anchor="middle" x="958.38" y="-3219.45" font-family="Arial" font-size="14.00" fill="#cfffac">features/formulario/DisintegrateText.tsx</text>
</g>
<!-- features/formulario/formc.module.css -->
<g id="node85" class="node">
<title>features/formulario/formc.module.css</title>
<path fill="none" stroke="#cfffac" d="M1070.58,-3194.75C1070.58,-3194.75 846.17,-3194.75 846.17,-3194.75 842.21,-3194.75 838.25,-3190.79 838.25,-3186.83 838.25,-3186.83 838.25,-3178.92 838.25,-3178.92 838.25,-3174.96 842.21,-3171 846.17,-3171 846.17,-3171 1070.58,-3171 1070.58,-3171 1074.54,-3171 1078.5,-3174.96 1078.5,-3178.92 1078.5,-3178.92 1078.5,-3186.83 1078.5,-3186.83 1078.5,-3190.79 1074.54,-3194.75 1070.58,-3194.75"/>
<text text-anchor="middle" x="958.38" y="-3177.45" font-family="Arial" font-size="14.00" fill="#cfffac">features/formulario/formc.module.css</text>
</g>
<!-- features/formulario/formc.tsx -->
<g id="node86" class="node">
<title>features/formulario/formc.tsx</title>
<path fill="none" stroke="#c6c5fe" d="M700.96,-3215.75C700.96,-3215.75 528.29,-3215.75 528.29,-3215.75 524.33,-3215.75 520.38,-3211.79 520.38,-3207.83 520.38,-3207.83 520.38,-3199.92 520.38,-3199.92 520.38,-3195.96 524.33,-3192 528.29,-3192 528.29,-3192 700.96,-3192 700.96,-3192 704.92,-3192 708.88,-3195.96 708.88,-3199.92 708.88,-3199.92 708.88,-3207.83 708.88,-3207.83 708.88,-3211.79 704.92,-3215.75 700.96,-3215.75"/>
<text text-anchor="middle" x="614.62" y="-3198.45" font-family="Arial" font-size="14.00" fill="#c6c5fe">features/formulario/formc.tsx</text>
</g>
<!-- features/formulario/formc.tsx&#45;&gt;features/formulario/DisintegrateText.tsx -->
<g id="edge8" class="edge">
<title>features/formulario/formc.tsx&#45;&gt;features/formulario/DisintegrateText.tsx</title>
<path fill="none" stroke="#757575" d="M709.01,-3209.61C743.73,-3211.75 783.85,-3214.21 821.6,-3216.53"/>
<polygon fill="#757575" stroke="#757575" points="820.99,-3220 831.19,-3217.12 821.42,-3213.01 820.99,-3220"/>
</g>
<!-- features/formulario/formc.tsx&#45;&gt;features/formulario/formc.module.css -->
<g id="edge9" class="edge">
<title>features/formulario/formc.tsx&#45;&gt;features/formulario/formc.module.css</title>
<path fill="none" stroke="#757575" d="M709.01,-3198.14C745.16,-3195.92 787.19,-3193.33 826.28,-3190.93"/>
<polygon fill="#757575" stroke="#757575" points="826.48,-3194.42 836.25,-3190.32 826.05,-3187.44 826.48,-3194.42"/>
</g>
<!-- features/formulario/index.ts -->
<g id="node87" class="node">
<title>features/formulario/index.ts</title>
<path fill="none" stroke="#c6c5fe" d="M296.46,-3215.75C296.46,-3215.75 132.79,-3215.75 132.79,-3215.75 128.83,-3215.75 124.88,-3211.79 124.88,-3207.83 124.88,-3207.83 124.88,-3199.92 124.88,-3199.92 124.88,-3195.96 128.83,-3192 132.79,-3192 132.79,-3192 296.46,-3192 296.46,-3192 300.42,-3192 304.38,-3195.96 304.38,-3199.92 304.38,-3199.92 304.38,-3207.83 304.38,-3207.83 304.38,-3211.79 300.42,-3215.75 296.46,-3215.75"/>
<text text-anchor="middle" x="214.62" y="-3198.45" font-family="Arial" font-size="14.00" fill="#c6c5fe">features/formulario/index.ts</text>
</g>
<!-- features/formulario/index.ts&#45;&gt;features/formulario/formc.tsx -->
<g id="edge10" class="edge">
<title>features/formulario/index.ts&#45;&gt;features/formulario/formc.tsx</title>
<path fill="none" stroke="#757575" d="M304.45,-3203.88C364.86,-3203.88 445.04,-3203.88 508.61,-3203.88"/>
<polygon fill="#757575" stroke="#757575" points="508.36,-3207.38 518.36,-3203.88 508.36,-3200.38 508.36,-3207.38"/>
</g>
<!-- features/gallery/gallery&#45;modal.module.css -->
<g id="node88" class="node">
<title>features/gallery/gallery&#45;modal.module.css</title>
<path fill="none" stroke="#cfffac" d="M739.96,-3257.75C739.96,-3257.75 489.29,-3257.75 489.29,-3257.75 485.33,-3257.75 481.38,-3253.79 481.38,-3249.83 481.38,-3249.83 481.38,-3241.92 481.38,-3241.92 481.38,-3237.96 485.33,-3234 489.29,-3234 489.29,-3234 739.96,-3234 739.96,-3234 743.92,-3234 747.88,-3237.96 747.88,-3241.92 747.88,-3241.92 747.88,-3249.83 747.88,-3249.83 747.88,-3253.79 743.92,-3257.75 739.96,-3257.75"/>
<text text-anchor="middle" x="614.62" y="-3240.45" font-family="Arial" font-size="14.00" fill="#cfffac">features/gallery/gallery&#45;modal.module.css</text>
</g>
<!-- features/gallery/gallery&#45;modal.tsx -->
<g id="node89" class="node">
<title>features/gallery/gallery&#45;modal.tsx</title>
<path fill="none" stroke="#c6c5fe" d="M314.08,-3257.75C314.08,-3257.75 115.17,-3257.75 115.17,-3257.75 111.21,-3257.75 107.25,-3253.79 107.25,-3249.83 107.25,-3249.83 107.25,-3241.92 107.25,-3241.92 107.25,-3237.96 111.21,-3234 115.17,-3234 115.17,-3234 314.08,-3234 314.08,-3234 318.04,-3234 322,-3237.96 322,-3241.92 322,-3241.92 322,-3249.83 322,-3249.83 322,-3253.79 318.04,-3257.75 314.08,-3257.75"/>
<text text-anchor="middle" x="214.62" y="-3240.45" font-family="Arial" font-size="14.00" fill="#c6c5fe">features/gallery/gallery&#45;modal.tsx</text>
</g>
<!-- features/gallery/gallery&#45;modal.tsx&#45;&gt;features/gallery/gallery&#45;modal.module.css -->
<g id="edge11" class="edge">
<title>features/gallery/gallery&#45;modal.tsx&#45;&gt;features/gallery/gallery&#45;modal.module.css</title>
<path fill="none" stroke="#757575" d="M322.28,-3245.88C367.57,-3245.88 421.05,-3245.88 469.76,-3245.88"/>
<polygon fill="#757575" stroke="#757575" points="469.53,-3249.38 479.53,-3245.88 469.53,-3242.38 469.53,-3249.38"/>
</g>
<!-- features/hero/hero.module.css -->
<g id="node90" class="node">
<title>features/hero/hero.module.css</title>
<path fill="none" stroke="#cfffac" d="M706.21,-3383.75C706.21,-3383.75 523.04,-3383.75 523.04,-3383.75 519.08,-3383.75 515.12,-3379.79 515.12,-3375.83 515.12,-3375.83 515.12,-3367.92 515.12,-3367.92 515.12,-3363.96 519.08,-3360 523.04,-3360 523.04,-3360 706.21,-3360 706.21,-3360 710.17,-3360 714.12,-3363.96 714.12,-3367.92 714.12,-3367.92 714.12,-3375.83 714.12,-3375.83 714.12,-3379.79 710.17,-3383.75 706.21,-3383.75"/>
<text text-anchor="middle" x="614.62" y="-3366.45" font-family="Arial" font-size="14.00" fill="#cfffac">features/hero/hero.module.css</text>
</g>
<!-- features/hero/hero.tsx -->
<g id="node91" class="node">
<title>features/hero/hero.tsx</title>
<path fill="none" stroke="#c6c5fe" d="M280.33,-3341.75C280.33,-3341.75 148.92,-3341.75 148.92,-3341.75 144.96,-3341.75 141,-3337.79 141,-3333.83 141,-3333.83 141,-3325.92 141,-3325.92 141,-3321.96 144.96,-3318 148.92,-3318 148.92,-3318 280.33,-3318 280.33,-3318 284.29,-3318 288.25,-3321.96 288.25,-3325.92 288.25,-3325.92 288.25,-3333.83 288.25,-3333.83 288.25,-3337.79 284.29,-3341.75 280.33,-3341.75"/>
<text text-anchor="middle" x="214.62" y="-3324.45" font-family="Arial" font-size="14.00" fill="#c6c5fe">features/hero/hero.tsx</text>
</g>
<!-- features/hero/hero.tsx&#45;&gt;features/hero/hero.module.css -->
<g id="edge12" class="edge">
<title>features/hero/hero.tsx&#45;&gt;features/hero/hero.module.css</title>
<path fill="none" stroke="#757575" d="M288.33,-3336.74C329.66,-3340.72 382.37,-3345.9 429.25,-3350.88 453.42,-3353.44 479.36,-3356.32 503.92,-3359.1"/>
<polygon fill="#757575" stroke="#757575" points="503.26,-3362.55 513.6,-3360.2 504.05,-3355.59 503.26,-3362.55"/>
</g>
<!-- features/hero/video&#45;background.tsx -->
<g id="node92" class="node">
<title>features/hero/video&#45;background.tsx</title>
<path fill="none" stroke="#c6c5fe" d="M720.46,-3341.75C720.46,-3341.75 508.79,-3341.75 508.79,-3341.75 504.83,-3341.75 500.88,-3337.79 500.88,-3333.83 500.88,-3333.83 500.88,-3325.92 500.88,-3325.92 500.88,-3321.96 504.83,-3318 508.79,-3318 508.79,-3318 720.46,-3318 720.46,-3318 724.42,-3318 728.38,-3321.96 728.38,-3325.92 728.38,-3325.92 728.38,-3333.83 728.38,-3333.83 728.38,-3337.79 724.42,-3341.75 720.46,-3341.75"/>
<text text-anchor="middle" x="614.62" y="-3324.45" font-family="Arial" font-size="14.00" fill="#c6c5fe">features/hero/video&#45;background.tsx</text>
</g>
<!-- features/hero/hero.tsx&#45;&gt;features/hero/video&#45;background.tsx -->
<g id="edge13" class="edge">
<title>features/hero/hero.tsx&#45;&gt;features/hero/video&#45;background.tsx</title>
<path fill="none" stroke="#757575" d="M288.62,-3329.88C344.63,-3329.88 423.25,-3329.88 489.14,-3329.88"/>
<polygon fill="#757575" stroke="#757575" points="488.93,-3333.38 498.93,-3329.88 488.93,-3326.38 488.93,-3333.38"/>
</g>
<!-- features/hero/word&#45;scroller.tsx -->
<g id="node93" class="node">
<title>features/hero/word&#45;scroller.tsx</title>
<path fill="none" stroke="#c6c5fe" d="M705.08,-3299.75C705.08,-3299.75 524.17,-3299.75 524.17,-3299.75 520.21,-3299.75 516.25,-3295.79 516.25,-3291.83 516.25,-3291.83 516.25,-3283.92 516.25,-3283.92 516.25,-3279.96 520.21,-3276 524.17,-3276 524.17,-3276 705.08,-3276 705.08,-3276 709.04,-3276 713,-3279.96 713,-3283.92 713,-3283.92 713,-3291.83 713,-3291.83 713,-3295.79 709.04,-3299.75 705.08,-3299.75"/>
<text text-anchor="middle" x="614.62" y="-3282.45" font-family="Arial" font-size="14.00" fill="#c6c5fe">features/hero/word&#45;scroller.tsx</text>
</g>
<!-- features/hero/hero.tsx&#45;&gt;features/hero/word&#45;scroller.tsx -->
<g id="edge14" class="edge">
<title>features/hero/hero.tsx&#45;&gt;features/hero/word&#45;scroller.tsx</title>
<path fill="none" stroke="#757575" d="M288.62,-3322.17C349.1,-3315.79 435.96,-3306.62 504.67,-3299.37"/>
<polygon fill="#757575" stroke="#757575" points="504.88,-3302.87 514.46,-3298.34 504.15,-3295.91 504.88,-3302.87"/>
</g>
<!-- features/hero/video&#45;background.module.css -->
<g id="node94" class="node">
<title>features/hero/video&#45;background.module.css</title>
<path fill="none" stroke="#cfffac" d="M1090.08,-3341.75C1090.08,-3341.75 826.67,-3341.75 826.67,-3341.75 822.71,-3341.75 818.75,-3337.79 818.75,-3333.83 818.75,-3333.83 818.75,-3325.92 818.75,-3325.92 818.75,-3321.96 822.71,-3318 826.67,-3318 826.67,-3318 1090.08,-3318 1090.08,-3318 1094.04,-3318 1098,-3321.96 1098,-3325.92 1098,-3325.92 1098,-3333.83 1098,-3333.83 1098,-3337.79 1094.04,-3341.75 1090.08,-3341.75"/>
<text text-anchor="middle" x="958.38" y="-3324.45" font-family="Arial" font-size="14.00" fill="#cfffac">features/hero/video&#45;background.module.css</text>
</g>
<!-- features/hero/video&#45;background.tsx&#45;&gt;features/hero/video&#45;background.module.css -->
<g id="edge15" class="edge">
<title>features/hero/video&#45;background.tsx&#45;&gt;features/hero/video&#45;background.module.css</title>
<path fill="none" stroke="#757575" d="M728.47,-3329.88C753.65,-3329.88 780.74,-3329.88 807.15,-3329.88"/>
<polygon fill="#757575" stroke="#757575" points="806.91,-3333.38 816.91,-3329.88 806.91,-3326.38 806.91,-3333.38"/>
</g>
<!-- features/hero/word&#45;scroller.module.css -->
<g id="node95" class="node">
<title>features/hero/word&#45;scroller.module.css</title>
<path fill="none" stroke="#cfffac" d="M1074.71,-3299.75C1074.71,-3299.75 842.04,-3299.75 842.04,-3299.75 838.08,-3299.75 834.12,-3295.79 834.12,-3291.83 834.12,-3291.83 834.12,-3283.92 834.12,-3283.92 834.12,-3279.96 838.08,-3276 842.04,-3276 842.04,-3276 1074.71,-3276 1074.71,-3276 1078.67,-3276 1082.62,-3279.96 1082.62,-3283.92 1082.62,-3283.92 1082.62,-3291.83 1082.62,-3291.83 1082.62,-3295.79 1078.67,-3299.75 1074.71,-3299.75"/>
<text text-anchor="middle" x="958.38" y="-3282.45" font-family="Arial" font-size="14.00" fill="#cfffac">features/hero/word&#45;scroller.module.css</text>
</g>
<!-- features/hero/word&#45;scroller.tsx&#45;&gt;features/hero/word&#45;scroller.module.css -->
<g id="edge16" class="edge">
<title>features/hero/word&#45;scroller.tsx&#45;&gt;features/hero/word&#45;scroller.module.css</title>
<path fill="none" stroke="#757575" d="M713.1,-3287.88C747.16,-3287.88 786.02,-3287.88 822.58,-3287.88"/>
<polygon fill="#757575" stroke="#757575" points="822.33,-3291.38 832.33,-3287.88 822.33,-3284.38 822.33,-3291.38"/>
</g>
<!-- features/i18n/language&#45;context.tsx -->
<g id="node96" class="node">
<title>features/i18n/language&#45;context.tsx</title>
<path fill="none" stroke="#cfffac" d="M317.83,-3383.75C317.83,-3383.75 111.42,-3383.75 111.42,-3383.75 107.46,-3383.75 103.5,-3379.79 103.5,-3375.83 103.5,-3375.83 103.5,-3367.92 103.5,-3367.92 103.5,-3363.96 107.46,-3360 111.42,-3360 111.42,-3360 317.83,-3360 317.83,-3360 321.79,-3360 325.75,-3363.96 325.75,-3367.92 325.75,-3367.92 325.75,-3375.83 325.75,-3375.83 325.75,-3379.79 321.79,-3383.75 317.83,-3383.75"/>
<text text-anchor="middle" x="214.62" y="-3366.45" font-family="Arial" font-size="14.00" fill="#cfffac">features/i18n/language&#45;context.tsx</text>
</g>
<!-- features/i18n/language&#45;switcher.module.css -->
<g id="node97" class="node">
<title>features/i18n/language&#45;switcher.module.css</title>
<path fill="none" stroke="#cfffac" d="M746.33,-3425.75C746.33,-3425.75 482.92,-3425.75 482.92,-3425.75 478.96,-3425.75 475,-3421.79 475,-3417.83 475,-3417.83 475,-3409.92 475,-3409.92 475,-3405.96 478.96,-3402 482.92,-3402 482.92,-3402 746.33,-3402 746.33,-3402 750.29,-3402 754.25,-3405.96 754.25,-3409.92 754.25,-3409.92 754.25,-3417.83 754.25,-3417.83 754.25,-3421.79 750.29,-3425.75 746.33,-3425.75"/>
<text text-anchor="middle" x="614.62" y="-3408.45" font-family="Arial" font-size="14.00" fill="#cfffac">features/i18n/language&#45;switcher.module.css</text>
</g>
<!-- features/i18n/language&#45;switcher.tsx -->
<g id="node98" class="node">
<title>features/i18n/language&#45;switcher.tsx</title>
<path fill="none" stroke="#c6c5fe" d="M320.46,-3425.75C320.46,-3425.75 108.79,-3425.75 108.79,-3425.75 104.83,-3425.75 100.88,-3421.79 100.88,-3417.83 100.88,-3417.83 100.88,-3409.92 100.88,-3409.92 100.88,-3405.96 104.83,-3402 108.79,-3402 108.79,-3402 320.46,-3402 320.46,-3402 324.42,-3402 328.38,-3405.96 328.38,-3409.92 328.38,-3409.92 328.38,-3417.83 328.38,-3417.83 328.38,-3421.79 324.42,-3425.75 320.46,-3425.75"/>
<text text-anchor="middle" x="214.62" y="-3408.45" font-family="Arial" font-size="14.00" fill="#c6c5fe">features/i18n/language&#45;switcher.tsx</text>
</g>
<!-- features/i18n/language&#45;switcher.tsx&#45;&gt;features/i18n/language&#45;switcher.module.css -->
<g id="edge17" class="edge">
<title>features/i18n/language&#45;switcher.tsx&#45;&gt;features/i18n/language&#45;switcher.module.css</title>
<path fill="none" stroke="#757575" d="M328.61,-3413.88C370.56,-3413.88 418.82,-3413.88 463.57,-3413.88"/>
<polygon fill="#757575" stroke="#757575" points="463.35,-3417.38 473.35,-3413.88 463.35,-3410.38 463.35,-3417.38"/>
</g>
<!-- features/lifestyle&#45;photography/lifestyle&#45;photography&#45;story.tsx -->
<g id="node99" class="node">
<title>features/lifestyle&#45;photography/lifestyle&#45;photography&#45;story.tsx</title>
<path fill="none" stroke="#cfffac" d="M394.33,-3467.75C394.33,-3467.75 34.92,-3467.75 34.92,-3467.75 30.96,-3467.75 27,-3463.79 27,-3459.83 27,-3459.83 27,-3451.92 27,-3451.92 27,-3447.96 30.96,-3444 34.92,-3444 34.92,-3444 394.33,-3444 394.33,-3444 398.29,-3444 402.25,-3447.96 402.25,-3451.92 402.25,-3451.92 402.25,-3459.83 402.25,-3459.83 402.25,-3463.79 398.29,-3467.75 394.33,-3467.75"/>
<text text-anchor="middle" x="214.62" y="-3450.45" font-family="Arial" font-size="14.00" fill="#cfffac">features/lifestyle&#45;photography/lifestyle&#45;photography&#45;story.tsx</text>
</g>
<!-- features/navigation/navbar.module.css -->
<g id="node100" class="node">
<title>features/navigation/navbar.module.css</title>
<path fill="none" stroke="#cfffac" d="M730.21,-3509.75C730.21,-3509.75 499.04,-3509.75 499.04,-3509.75 495.08,-3509.75 491.12,-3505.79 491.12,-3501.83 491.12,-3501.83 491.12,-3493.92 491.12,-3493.92 491.12,-3489.96 495.08,-3486 499.04,-3486 499.04,-3486 730.21,-3486 730.21,-3486 734.17,-3486 738.12,-3489.96 738.12,-3493.92 738.12,-3493.92 738.12,-3501.83 738.12,-3501.83 738.12,-3505.79 734.17,-3509.75 730.21,-3509.75"/>
<text text-anchor="middle" x="614.62" y="-3492.45" font-family="Arial" font-size="14.00" fill="#cfffac">features/navigation/navbar.module.css</text>
</g>
<!-- features/navigation/navbar.tsx -->
<g id="node101" class="node">
<title>features/navigation/navbar.tsx</title>
<path fill="none" stroke="#c6c5fe" d="M304.33,-3509.75C304.33,-3509.75 124.92,-3509.75 124.92,-3509.75 120.96,-3509.75 117,-3505.79 117,-3501.83 117,-3501.83 117,-3493.92 117,-3493.92 117,-3489.96 120.96,-3486 124.92,-3486 124.92,-3486 304.33,-3486 304.33,-3486 308.29,-3486 312.25,-3489.96 312.25,-3493.92 312.25,-3493.92 312.25,-3501.83 312.25,-3501.83 312.25,-3505.79 308.29,-3509.75 304.33,-3509.75"/>
<text text-anchor="middle" x="214.62" y="-3492.45" font-family="Arial" font-size="14.00" fill="#c6c5fe">features/navigation/navbar.tsx</text>
</g>
<!-- features/navigation/navbar.tsx&#45;&gt;features/navigation/navbar.module.css -->
<g id="edge18" class="edge">
<title>features/navigation/navbar.tsx&#45;&gt;features/navigation/navbar.module.css</title>
<path fill="none" stroke="#757575" d="M312.73,-3497.88C362.89,-3497.88 424.88,-3497.88 479.54,-3497.88"/>
<polygon fill="#757575" stroke="#757575" points="479.21,-3501.38 489.21,-3497.88 479.21,-3494.38 479.21,-3501.38"/>
</g>
<!-- features/portfolio/portfolio&#45;nav.module.css -->
<g id="node102" class="node">
<title>features/portfolio/portfolio&#45;nav.module.css</title>
<path fill="none" stroke="#cfffac" d="M739.96,-3551.75C739.96,-3551.75 489.29,-3551.75 489.29,-3551.75 485.33,-3551.75 481.38,-3547.79 481.38,-3543.83 481.38,-3543.83 481.38,-3535.92 481.38,-3535.92 481.38,-3531.96 485.33,-3528 489.29,-3528 489.29,-3528 739.96,-3528 739.96,-3528 743.92,-3528 747.88,-3531.96 747.88,-3535.92 747.88,-3535.92 747.88,-3543.83 747.88,-3543.83 747.88,-3547.79 743.92,-3551.75 739.96,-3551.75"/>
<text text-anchor="middle" x="614.62" y="-3534.45" font-family="Arial" font-size="14.00" fill="#cfffac">features/portfolio/portfolio&#45;nav.module.css</text>
</g>
<!-- features/portfolio/portfolio&#45;nav.tsx -->
<g id="node103" class="node">
<title>features/portfolio/portfolio&#45;nav.tsx</title>
<path fill="none" stroke="#c6c5fe" d="M314.08,-3551.75C314.08,-3551.75 115.17,-3551.75 115.17,-3551.75 111.21,-3551.75 107.25,-3547.79 107.25,-3543.83 107.25,-3543.83 107.25,-3535.92 107.25,-3535.92 107.25,-3531.96 111.21,-3528 115.17,-3528 115.17,-3528 314.08,-3528 314.08,-3528 318.04,-3528 322,-3531.96 322,-3535.92 322,-3535.92 322,-3543.83 322,-3543.83 322,-3547.79 318.04,-3551.75 314.08,-3551.75"/>
<text text-anchor="middle" x="214.62" y="-3534.45" font-family="Arial" font-size="14.00" fill="#c6c5fe">features/portfolio/portfolio&#45;nav.tsx</text>
</g>
<!-- features/portfolio/portfolio&#45;nav.tsx&#45;&gt;features/portfolio/portfolio&#45;nav.module.css -->
<g id="edge19" class="edge">
<title>features/portfolio/portfolio&#45;nav.tsx&#45;&gt;features/portfolio/portfolio&#45;nav.module.css</title>
<path fill="none" stroke="#757575" d="M322.28,-3539.88C367.57,-3539.88 421.05,-3539.88 469.76,-3539.88"/>
<polygon fill="#757575" stroke="#757575" points="469.53,-3543.38 479.53,-3539.88 469.53,-3536.38 469.53,-3543.38"/>
</g>
<!-- features/works/works.module.css -->
<g id="node104" class="node">
<title>features/works/works.module.css</title>
<path fill="none" stroke="#cfffac" d="M714.46,-3593.75C714.46,-3593.75 514.79,-3593.75 514.79,-3593.75 510.83,-3593.75 506.88,-3589.79 506.88,-3585.83 506.88,-3585.83 506.88,-3577.92 506.88,-3577.92 506.88,-3573.96 510.83,-3570 514.79,-3570 514.79,-3570 714.46,-3570 714.46,-3570 718.42,-3570 722.38,-3573.96 722.38,-3577.92 722.38,-3577.92 722.38,-3585.83 722.38,-3585.83 722.38,-3589.79 718.42,-3593.75 714.46,-3593.75"/>
<text text-anchor="middle" x="614.62" y="-3576.45" font-family="Arial" font-size="14.00" fill="#cfffac">features/works/works.module.css</text>
</g>
<!-- features/works/works.tsx -->
<g id="node105" class="node">
<title>features/works/works.tsx</title>
<path fill="none" stroke="#c6c5fe" d="M288.58,-3593.75C288.58,-3593.75 140.67,-3593.75 140.67,-3593.75 136.71,-3593.75 132.75,-3589.79 132.75,-3585.83 132.75,-3585.83 132.75,-3577.92 132.75,-3577.92 132.75,-3573.96 136.71,-3570 140.67,-3570 140.67,-3570 288.58,-3570 288.58,-3570 292.54,-3570 296.5,-3573.96 296.5,-3577.92 296.5,-3577.92 296.5,-3585.83 296.5,-3585.83 296.5,-3589.79 292.54,-3593.75 288.58,-3593.75"/>
<text text-anchor="middle" x="214.62" y="-3576.45" font-family="Arial" font-size="14.00" fill="#c6c5fe">features/works/works.tsx</text>
</g>
<!-- features/works/works.tsx&#45;&gt;features/works/works.module.css -->
<g id="edge20" class="edge">
<title>features/works/works.tsx&#45;&gt;features/works/works.module.css</title>
<path fill="none" stroke="#757575" d="M296.65,-3581.88C353.79,-3581.88 431.24,-3581.88 495.28,-3581.88"/>
<polygon fill="#757575" stroke="#757575" points="495.15,-3585.38 505.15,-3581.88 495.15,-3578.38 495.15,-3585.38"/>
</g>
<!-- hooks/use&#45;mobile.tsx -->
<g id="node106" class="node">
<title>hooks/use&#45;mobile.tsx</title>
<path fill="none" stroke="#cfffac" d="M278.46,-3635.75C278.46,-3635.75 150.79,-3635.75 150.79,-3635.75 146.83,-3635.75 142.88,-3631.79 142.88,-3627.83 142.88,-3627.83 142.88,-3619.92 142.88,-3619.92 142.88,-3615.96 146.83,-3612 150.79,-3612 150.79,-3612 278.46,-3612 278.46,-3612 282.42,-3612 286.38,-3615.96 286.38,-3619.92 286.38,-3619.92 286.38,-3627.83 286.38,-3627.83 286.38,-3631.79 282.42,-3635.75 278.46,-3635.75"/>
<text text-anchor="middle" x="214.62" y="-3618.45" font-family="Arial" font-size="14.00" fill="#cfffac">hooks/use&#45;mobile.tsx</text>
</g>
<!-- hooks/use&#45;toast.ts -->
<g id="node107" class="node">
<title>hooks/use&#45;toast.ts</title>
<path fill="none" stroke="#cfffac" d="M269.46,-3677.75C269.46,-3677.75 159.79,-3677.75 159.79,-3677.75 155.83,-3677.75 151.88,-3673.79 151.88,-3669.83 151.88,-3669.83 151.88,-3661.92 151.88,-3661.92 151.88,-3657.96 155.83,-3654 159.79,-3654 159.79,-3654 269.46,-3654 269.46,-3654 273.42,-3654 277.38,-3657.96 277.38,-3661.92 277.38,-3661.92 277.38,-3669.83 277.38,-3669.83 277.38,-3673.79 273.42,-3677.75 269.46,-3677.75"/>
<text text-anchor="middle" x="214.62" y="-3660.45" font-family="Arial" font-size="14.00" fill="#cfffac">hooks/use&#45;toast.ts</text>
</g>
<!-- lib/dictionary.ts -->
<g id="node108" class="node">
<title>lib/dictionary.ts</title>
<path fill="none" stroke="#cfffac" d="M258.96,-3719.75C258.96,-3719.75 170.29,-3719.75 170.29,-3719.75 166.33,-3719.75 162.38,-3715.79 162.38,-3711.83 162.38,-3711.83 162.38,-3703.92 162.38,-3703.92 162.38,-3699.96 166.33,-3696 170.29,-3696 170.29,-3696 258.96,-3696 258.96,-3696 262.92,-3696 266.88,-3699.96 266.88,-3703.92 266.88,-3703.92 266.88,-3711.83 266.88,-3711.83 266.88,-3715.79 262.92,-3719.75 258.96,-3719.75"/>
<text text-anchor="middle" x="214.62" y="-3702.45" font-family="Arial" font-size="14.00" fill="#cfffac">lib/dictionary.ts</text>
</g>
<!-- lib/utils.ts -->
<g id="node109" class="node">
<title>lib/utils.ts</title>
<path fill="none" stroke="#cfffac" d="M242.46,-3761.75C242.46,-3761.75 186.79,-3761.75 186.79,-3761.75 182.83,-3761.75 178.88,-3757.79 178.88,-3753.83 178.88,-3753.83 178.88,-3745.92 178.88,-3745.92 178.88,-3741.96 182.83,-3738 186.79,-3738 186.79,-3738 242.46,-3738 242.46,-3738 246.42,-3738 250.38,-3741.96 250.38,-3745.92 250.38,-3745.92 250.38,-3753.83 250.38,-3753.83 250.38,-3757.79 246.42,-3761.75 242.46,-3761.75"/>
<text text-anchor="middle" x="214.62" y="-3744.45" font-family="Arial" font-size="14.00" fill="#cfffac">lib/utils.ts</text>
</g>
<!-- next&#45;env.d.ts -->
<g id="node110" class="node">
<title>next&#45;env.d.ts</title>
<path fill="none" stroke="#cfffac" d="M252.96,-3803.75C252.96,-3803.75 176.29,-3803.75 176.29,-3803.75 172.33,-3803.75 168.38,-3799.79 168.38,-3795.83 168.38,-3795.83 168.38,-3787.92 168.38,-3787.92 168.38,-3783.96 172.33,-3780 176.29,-3780 176.29,-3780 252.96,-3780 252.96,-3780 256.92,-3780 260.88,-3783.96 260.88,-3787.92 260.88,-3787.92 260.88,-3795.83 260.88,-3795.83 260.88,-3799.79 256.92,-3803.75 252.96,-3803.75"/>
<text text-anchor="middle" x="214.62" y="-3786.45" font-family="Arial" font-size="14.00" fill="#cfffac">next&#45;env.d.ts</text>
</g>
<!-- scripts/generate&#45;diagram.js -->
<g id="node111" class="node">
<title>scripts/generate&#45;diagram.js</title>
<path fill="none" stroke="#cfffac" d="M296.46,-3845.75C296.46,-3845.75 132.79,-3845.75 132.79,-3845.75 128.83,-3845.75 124.88,-3841.79 124.88,-3837.83 124.88,-3837.83 124.88,-3829.92 124.88,-3829.92 124.88,-3825.96 128.83,-3822 132.79,-3822 132.79,-3822 296.46,-3822 296.46,-3822 300.42,-3822 304.38,-3825.96 304.38,-3829.92 304.38,-3829.92 304.38,-3837.83 304.38,-3837.83 304.38,-3841.79 300.42,-3845.75 296.46,-3845.75"/>
<text text-anchor="middle" x="214.62" y="-3828.45" font-family="Arial" font-size="14.00" fill="#cfffac">scripts/generate&#45;diagram.js</text>
</g>
<!-- tailwind.config.ts -->
<g id="node112" class="node">
<title>tailwind.config.ts</title>
<path fill="none" stroke="#cfffac" d="M264.21,-3887.75C264.21,-3887.75 165.04,-3887.75 165.04,-3887.75 161.08,-3887.75 157.12,-3883.79 157.12,-3879.83 157.12,-3879.83 157.12,-3871.92 157.12,-3871.92 157.12,-3867.96 161.08,-3864 165.04,-3864 165.04,-3864 264.21,-3864 264.21,-3864 268.17,-3864 272.12,-3867.96 272.12,-3871.92 272.12,-3871.92 272.12,-3879.83 272.12,-3879.83 272.12,-3883.79 268.17,-3887.75 264.21,-3887.75"/>
<text text-anchor="middle" x="214.62" y="-3870.45" font-family="Arial" font-size="14.00" fill="#cfffac">tailwind.config.ts</text>
</g>
<!-- types/form.ts -->
<g id="node113" class="node">
<title>types/form.ts</title>
<path fill="none" stroke="#cfffac" d="M253.71,-3929.75C253.71,-3929.75 175.54,-3929.75 175.54,-3929.75 171.58,-3929.75 167.62,-3925.79 167.62,-3921.83 167.62,-3921.83 167.62,-3913.92 167.62,-3913.92 167.62,-3909.96 171.58,-3906 175.54,-3906 175.54,-3906 253.71,-3906 253.71,-3906 257.67,-3906 261.62,-3909.96 261.62,-3913.92 261.62,-3913.92 261.62,-3921.83 261.62,-3921.83 261.62,-3925.79 257.67,-3929.75 253.71,-3929.75"/>
<text text-anchor="middle" x="214.62" y="-3912.45" font-family="Arial" font-size="14.00" fill="#cfffac">types/form.ts</text>
</g>
<!-- utils/fetch.ts -->
<g id="node114" class="node">
<title>utils/fetch.ts</title>
<path fill="none" stroke="#cfffac" d="M250.33,-3971.75C250.33,-3971.75 178.92,-3971.75 178.92,-3971.75 174.96,-3971.75 171,-3967.79 171,-3963.83 171,-3963.83 171,-3955.92 171,-3955.92 171,-3951.96 174.96,-3948 178.92,-3948 178.92,-3948 250.33,-3948 250.33,-3948 254.29,-3948 258.25,-3951.96 258.25,-3955.92 258.25,-3955.92 258.25,-3963.83 258.25,-3963.83 258.25,-3967.79 254.29,-3971.75 250.33,-3971.75"/>
<text text-anchor="middle" x="214.62" y="-3954.45" font-family="Arial" font-size="14.00" fill="#cfffac">utils/fetch.ts</text>
</g>
</g>
</svg>
